<svg width="22" height="22" viewBox="0 0 22 22" fill="none" xmlns="http://www.w3.org/2000/svg">
<path d="M20.9481 3.03776C20.9481 4.16534 20.034 5.07943 18.9064 5.07943C17.7788 5.07943 16.8647 4.16534 16.8647 3.03776C16.8647 1.91018 17.7788 0.996094 18.9064 0.996094C20.034 0.996094 20.9481 1.91018 20.9481 3.03776Z" stroke="#111111" stroke-width="1.5"/>
<path d="M19.8977 8.04443C19.9272 8.94719 19.9272 9.99027 19.9272 11.2031C19.9272 15.5341 19.9272 17.6997 18.5818 19.0452C17.2363 20.3906 15.0707 20.3906 10.7397 20.3906C6.40872 20.3906 4.2432 20.3906 2.89773 19.0452C1.55225 17.6997 1.55225 15.5341 1.55225 11.2031C1.55225 6.8721 1.55225 4.70658 2.89773 3.3611C4.2432 2.01562 6.40872 2.01562 10.7397 2.01562C11.9526 2.01562 12.9957 2.01562 13.8984 2.04518" stroke="#111111" stroke-width="1.5" stroke-linecap="round" stroke-linejoin="round"/>
<path d="M4.61475 11.2044H7.16683L9.2085 7.12109L12.271 15.2878L14.3127 11.2044H16.8647" stroke="#22CB67" stroke-width="1.5" stroke-linecap="round" stroke-linejoin="round"/>
</svg>
