<svg width="22" height="25" viewBox="0 0 22 25" fill="none" xmlns="http://www.w3.org/2000/svg">
<path d="M14.0682 2.40841L6.77843 5.90766C6.2174 6.17696 5.61794 6.24444 5.00686 6.10754C4.60694 6.01795 4.40696 5.97315 4.24592 5.95477C2.24633 5.72643 1 7.30901 1 9.12888V10.1276C1 11.9475 2.24633 13.5301 4.24592 13.3017C4.40696 13.2833 4.60695 13.2385 5.00686 13.149C5.61794 13.012 6.2174 13.0795 6.77843 13.3488L14.0682 16.8481C15.7415 17.6514 16.5782 18.053 17.5111 17.7399C18.4439 17.4269 18.7641 16.7551 19.4046 15.4116C21.163 11.7224 21.163 7.53411 19.4046 3.84486C18.7641 2.50136 18.4439 1.82962 17.5111 1.51655C16.5782 1.2035 15.7415 1.60513 14.0682 2.40841Z" stroke="white" stroke-width="1.97234" stroke-linecap="round" stroke-linejoin="round"/>
<path d="M10.2678 21.9759L8.63361 23.3226C4.95016 20.4013 5.40016 19.0081 5.40016 13.4609H6.64255C7.14673 16.5958 8.33598 18.0806 9.97695 19.1555C10.9878 19.8176 11.1962 21.2106 10.2678 21.9759Z" stroke="white" stroke-width="1.97234" stroke-linecap="round" stroke-linejoin="round"/>
<path d="M5.92188 12.9182V6.34375" stroke="white" stroke-width="1.97234" stroke-linecap="round" stroke-linejoin="round"/>
</svg>
