<svg width="62" height="56" viewBox="0 0 62 56" fill="none" xmlns="http://www.w3.org/2000/svg">
<path d="M33.125 47.625V25.625C33.125 23.0323 33.125 21.7359 32.3195 20.9304C31.514 20.125 30.2177 20.125 27.625 20.125C25.0323 20.125 23.7359 20.125 22.9304 20.9304C22.125 21.7359 22.125 23.0323 22.125 25.625V47.625C22.125 50.2177 22.125 51.514 22.9304 52.3195C23.7359 53.125 25.0323 53.125 27.625 53.125C30.2177 53.125 31.514 53.125 32.3195 52.3195C33.125 51.514 33.125 50.2177 33.125 47.625Z" stroke="#0A0A41" stroke-width="4.125" stroke-linecap="round" stroke-linejoin="round"/>
<path d="M52.375 28.375V47.625C52.375 50.2177 52.375 51.514 51.5695 52.3195C50.764 53.125 49.4677 53.125 46.875 53.125C44.2823 53.125 42.986 53.125 42.1805 52.3195C41.375 51.514 41.375 50.2177 41.375 47.625V28.375" stroke="#0A0A41" stroke-width="4.125" stroke-linecap="round" stroke-linejoin="round"/>
<path d="M13.875 47.625V33.875C13.875 31.2823 13.875 29.986 13.0696 29.1805C12.2641 28.375 10.9677 28.375 8.375 28.375C5.78227 28.375 4.48592 28.375 3.68045 29.1805C2.875 29.986 2.875 31.2823 2.875 33.875V47.625C2.875 50.2177 2.875 51.514 3.68045 52.3195C4.48592 53.125 5.78227 53.125 8.375 53.125C10.9677 53.125 12.2641 53.125 13.0696 52.3195C13.875 51.514 13.875 50.2177 13.875 47.625Z" stroke="#0A0A41" stroke-width="4.125" stroke-linecap="round" stroke-linejoin="round"/>
<path d="M54.832 19.833L59.9367 24.9377" stroke="#0A0A41" stroke-width="3.025" stroke-linecap="round" stroke-linejoin="round"/>
<path d="M57.6687 12.4594C57.6687 6.8209 53.0979 2.25 47.4594 2.25C41.8209 2.25 37.25 6.8209 37.25 12.4594C37.25 18.0979 41.8209 22.6687 47.4594 22.6687C53.0979 22.6687 57.6687 18.0979 57.6687 12.4594Z" stroke="#0A0A41" stroke-width="3.025" stroke-linejoin="round"/>
<path d="M50.7329 10.004C50.8853 8.16601 48.0731 6.66526 45.9241 7.67214C43.2395 8.92992 43.4735 12.1091 46.7892 12.2772C48.2647 12.352 49.5553 12.1927 50.4323 13.1431C51.3094 14.0937 51.6895 16.5142 49.1041 17.3358C46.5189 18.1572 43.8242 16.6922 43.8242 14.9052M47.4159 5.91797V7.33903M47.4159 17.8664V18.9996" stroke="#22CB67" stroke-width="2.46657" stroke-linecap="round" stroke-linejoin="round"/>
</svg>
