<svg width="32" height="32" viewBox="0 0 32 32" fill="none" xmlns="http://www.w3.org/2000/svg">
<path d="M14.7892 8.32031C11.8763 8.32556 10.351 8.39707 9.37619 9.37187C8.32422 10.4238 8.32422 12.117 8.32422 15.5032V16.9399C8.32422 20.3261 8.32422 22.0192 9.37619 23.0713C10.4282 24.1232 12.1213 24.1232 15.5075 24.1232H16.9442C20.3304 24.1232 22.0235 24.1232 23.0756 23.0713C24.0504 22.0965 24.1219 20.5711 24.1271 17.6582" stroke="#111111" stroke-width="2.586" stroke-linecap="round" stroke-linejoin="round"/>
<path d="M8.32437 14.7852C5.41149 14.7903 3.88615 14.8619 2.91134 15.8367C1.85937 16.8887 1.85938 18.5818 1.85938 21.9681V23.4047C1.85938 26.7909 1.85937 28.4841 2.91134 29.5361C3.96333 30.588 5.65645 30.5881 9.04271 30.5881H10.4794C13.8656 30.5881 15.5587 30.588 16.6108 29.5361C17.5856 28.5613 17.6571 27.0359 17.6623 24.1231" stroke="#111111" stroke-width="2.586" stroke-linecap="round" stroke-linejoin="round"/>
<path d="M27.0007 1.85547H18.3807C16.3971 1.85547 14.7891 3.46351 14.7891 5.44713V14.0671C14.7891 16.0508 16.3971 17.6588 18.3807 17.6588H27.0007C28.9843 17.6588 30.5924 16.0508 30.5924 14.0671V5.44713C30.5924 3.46351 28.9843 1.85547 27.0007 1.85547Z" stroke="#22CB67" stroke-width="2.586" stroke-linecap="round" stroke-linejoin="round"/>
</svg>
