<svg width="37" height="37" viewBox="0 0 37 37" fill="none" xmlns="http://www.w3.org/2000/svg">
<path d="M23.9219 10.2844C23.9219 10.2844 24.7585 11.1211 25.5952 12.7944C25.5952 12.7944 28.2528 8.61108 30.6152 7.77441" stroke="#0A0A41" stroke-width="2.5" stroke-linecap="round" stroke-linejoin="round"/>
<path d="M15.5734 1.92287C11.3926 1.74587 8.16262 2.22749 8.16262 2.22749C6.12308 2.37332 2.21449 3.51674 2.21452 10.1945C2.21456 16.8155 2.17128 24.978 2.21452 28.232C2.21452 30.22 3.44546 34.8574 7.70604 35.1058C12.8847 35.4081 22.213 35.4723 26.4929 35.1058C27.6386 35.0413 31.4529 34.1418 31.9357 29.9918C32.4359 25.6925 32.3363 22.7046 32.3363 21.9934" stroke="#22CB67" stroke-width="2.5" stroke-linecap="round" stroke-linejoin="round"/>
<path d="M35.6674 10.2817C35.6674 14.9025 31.9179 18.6484 27.2927 18.6484C22.6674 18.6484 18.918 14.9025 18.918 10.2817C18.918 5.66093 22.6674 1.91504 27.2927 1.91504C31.9179 1.91504 35.6674 5.66093 35.6674 10.2817Z" stroke="#0A0A41" stroke-width="2.5" stroke-linecap="round"/>
<path d="M10.5391 20.3242H17.2323" stroke="#22CB67" stroke-width="2.5" stroke-linecap="round"/>
<path d="M10.5391 27.0146H23.9257" stroke="#22CB67" stroke-width="2.5" stroke-linecap="round"/>
</svg>
