<svg width="60" height="50" viewBox="0 0 60 50" fill="none" xmlns="http://www.w3.org/2000/svg">
<path d="M38.25 14C38.25 18.5563 34.5565 22.25 30 22.25C25.4435 22.25 21.75 18.5563 21.75 14C21.75 9.44366 25.4435 5.75 30 5.75C34.5565 5.75 38.25 9.44366 38.25 14Z" stroke="#0A0A41" stroke-width="4.13" stroke-linecap="round" stroke-linejoin="round"/>
<path d="M41 3C45.5562 3 49.25 6.69366 49.25 11.25C49.25 14.6135 47.237 17.5069 44.3503 18.7913" stroke="#22CB67" stroke-width="4.13" stroke-linecap="round" stroke-linejoin="round"/>
<path d="M34.7144 30.5H25.2857C18.7766 30.5 13.5 35.7767 13.5 42.2857C13.5 44.8894 15.6107 47 18.2143 47H41.7857C44.3894 47 46.5001 44.8894 46.5001 42.2857C46.5001 35.7767 41.2234 30.5 34.7144 30.5Z" stroke="#0A0A41" stroke-width="4.13" stroke-linecap="round" stroke-linejoin="round"/>
<path d="M45.7148 27.75C52.2238 27.75 57.5005 33.0267 57.5005 39.5357C57.5005 42.1394 55.3899 44.25 52.7862 44.25" stroke="#22CB67" stroke-width="4.13" stroke-linecap="round" stroke-linejoin="round"/>
<path d="M19 3C14.4437 3 10.75 6.69366 10.75 11.25C10.75 14.6135 12.7628 17.5069 15.6496 18.7913" stroke="#22CB67" stroke-width="4.13" stroke-linecap="round" stroke-linejoin="round"/>
<path d="M7.2143 44.25C4.61065 44.25 2.5 42.1394 2.5 39.5357C2.5 33.0267 7.77664 27.75 14.2857 27.75" stroke="#22CB67" stroke-width="4.13" stroke-linecap="round" stroke-linejoin="round"/>
</svg>
