<svg width="22" height="16" viewBox="0 0 22 16" fill="none" xmlns="http://www.w3.org/2000/svg">
<path d="M21 2.75H18.2111C17.61 2.75 17.3094 2.75 17.026 2.66418C16.7426 2.57837 16.4925 2.41165 15.9923 2.0782C15.2421 1.57803 14.3862 1.00745 13.961 0.87872C13.5359 0.75 13.085 0.75 12.1833 0.75C10.9571 0.75 10.1667 0.75 9.6154 0.97836C9.0641 1.20672 8.63056 1.64027 7.76347 2.50736L7.00039 3.27044C6.80498 3.46585 6.70727 3.56356 6.64695 3.66002C6.42335 4.01761 6.44813 4.47705 6.70889 4.80851C6.77924 4.89793 6.88689 4.98456 7.10218 5.15782C7.89796 5.79824 9.0452 5.73432 9.7658 5.00942L11 3.76786H12L18 9.80357C18.5523 10.3592 18.5523 11.2599 18 11.8155C17.4477 12.3711 16.5523 12.3711 16 11.8155L15.5 11.3125M15.5 11.3125L12.5 8.29467M15.5 11.3125C16.0523 11.8681 16.0523 12.7689 15.5 13.3244C14.9477 13.88 14.0523 13.88 13.5 13.3244L12.5 12.3185M12.5 12.3185C13.0523 12.874 13.0523 13.7748 12.5 14.3304C11.9477 14.8859 11.0523 14.8859 10.5 14.3304L9 12.8214M12.5 12.3185L10.5 10.3185M9 12.8214L8.5 12.3185M9 12.8214C9.5523 13.377 9.5523 14.2778 9 14.8334C8.44772 15.3889 7.55229 15.3889 7 14.8334L4.17637 11.9509C3.59615 11.3586 3.30604 11.0625 2.93435 10.9062C2.56266 10.75 2.14808 10.75 1.31894 10.75H1" stroke="#141B34" stroke-width="1.5" stroke-linecap="round" stroke-linejoin="round"/>
<path d="M21 10.75H18.5" stroke="#141B34" stroke-width="1.5" stroke-linecap="round"/>
<path d="M7.5 2.75H1" stroke="#141B34" stroke-width="1.5" stroke-linecap="round"/>
</svg>
