<svg width="15" height="16" viewBox="0 0 15 16" fill="none" xmlns="http://www.w3.org/2000/svg">
<path d="M6.60054 13.7686H5.70255C3.40461 13.7686 2.25564 13.7686 1.54176 13.0412C0.827881 12.3137 0.827881 11.1429 0.827881 8.80129C0.827881 6.45969 0.827881 5.28888 1.54176 4.56143C2.25564 3.83398 3.40461 3.83398 5.70255 3.83398H8.1399C10.4378 3.83398 11.5868 3.83398 12.3007 4.56143C12.8499 5.12112 12.9766 5.94327 13.0058 7.35916" stroke="#0A0A41" stroke-width="1.28" stroke-linecap="round"/>
<path d="M12.3755 13.1418L13.6466 14.4088M13.0396 11.5415C13.0396 10.2932 12.0276 9.28125 10.7793 9.28125C9.53097 9.28125 8.51904 10.2932 8.51904 11.5415C8.51904 12.7899 9.53097 13.8019 10.7793 13.8019C12.0276 13.8019 13.0396 12.7899 13.0396 11.5415Z" stroke="#22CB67" stroke-width="1.28" stroke-linecap="round" stroke-linejoin="round"/>
<path d="M9.80099 3.83315L9.73728 3.63506C9.42001 2.64797 9.26138 2.15443 8.88367 1.87213C8.50603 1.58984 8.00436 1.58984 7.00103 1.58984H6.8324C5.82906 1.58984 5.3274 1.58984 4.94973 1.87213C4.57206 2.15443 4.41342 2.64797 4.09614 3.63506L4.03247 3.83315" stroke="#0A0A41" stroke-width="1.28"/>
</svg>
