<svg width="24" height="24" viewBox="0 0 24 24" fill="none" xmlns="http://www.w3.org/2000/svg">
<path d="M20.0011 9.90909V7.81818C20.0011 6.12494 20.0011 5.27832 19.7331 4.60214C19.3023 3.5151 18.3913 2.65765 17.2363 2.2522C16.5178 2 15.6183 2 13.8192 2C10.6709 2 9.09661 2 7.83934 2.44135C5.81811 3.15088 4.22379 4.65142 3.46991 6.55375C3.00098 7.73706 3.00098 9.21865 3.00098 12.1818V14.7273C3.00098 17.7966 3.00098 19.3313 3.84868 20.3971C4.09156 20.7025 4.3796 20.9736 4.70405 21.2022C5.83644 22 7.46704 22 10.7283 22H11.5011C12.0357 22 13.0348 22 13.5011 21.9972M3.00098 12C3.00098 10.159 4.49336 8.66667 6.33431 8.66667C7.00009 8.66667 7.78501 8.78333 8.43234 8.60988C9.00749 8.45576 9.45674 8.00652 9.61085 7.43136C9.7843 6.78404 9.66764 5.99912 9.66764 5.33333C9.66764 3.49238 11.1601 2 13.0011 2" stroke="#141B34" stroke-width="1.5" stroke-linecap="round" stroke-linejoin="round"/>
<path d="M20.7531 15.8111C20.858 14.5466 18.9233 13.5141 17.4447 14.2069C15.5977 15.0722 15.7588 17.2594 18.0399 17.3751C19.055 17.4265 19.9429 17.3169 20.5463 17.9708C21.1497 18.6248 21.4112 20.2901 19.6326 20.8553C17.8539 21.4204 16 20.4125 16 19.1831M18.4711 13V13.9777M18.4711 21.2204V22" stroke="#141B34" stroke-width="1.5" stroke-linecap="round" stroke-linejoin="round"/>
</svg>
