<svg width="22" height="22" viewBox="0 0 22 22" fill="none" xmlns="http://www.w3.org/2000/svg">
<path d="M2.99219 13.999V5.96505C2.99219 4.07142 2.99219 3.12461 3.57579 2.53633C3.90116 2.20835 4.33708 2.06323 4.98471 1.99902H9.96599" stroke="#141B34" stroke-width="1.5" stroke-linecap="round" stroke-linejoin="round"/>
<path d="M2.49203 15.0144L3.01199 13.999H18.8847L19.4331 15.0144C20.8706 17.676 21.2287 19.0067 20.6822 20.0029C20.1359 20.999 18.6872 20.999 15.7899 20.999H6.13536C3.23803 20.999 1.78935 20.999 1.24296 20.0029C0.696567 19.0067 1.05454 17.676 2.49203 15.0144Z" stroke="#141B34" stroke-width="1.5" stroke-linecap="round" stroke-linejoin="round"/>
<path d="M14.4369 1.00098V2.98M10.9629 4.50136H13.0072M18.956 4.50136H21.0003M18.956 7.47458H21.0003M10.9629 7.47458H13.0072M14.4369 9.0202V10.9992M17.451 9.0202V10.9992M17.4403 1.00098V2.98M14.0035 8.96854H17.9597C18.5099 8.96854 18.956 8.52082 18.956 7.96854V3.98C18.956 3.42771 18.5099 2.98 17.9597 2.98H14.0035C13.4532 2.98 13.0072 3.42771 13.0072 3.98V7.96854C13.0072 8.52082 13.4532 8.96854 14.0035 8.96854Z" stroke="#141B34" stroke-width="1.5" stroke-linecap="round"/>
</svg>
