<svg width="24" height="30" viewBox="0 0 24 30" fill="none" xmlns="http://www.w3.org/2000/svg">
<path d="M20.0741 10.3845L18.7407 9.56642C17.4038 8.7461 16.7354 8.33594 15.9967 8.33594C15.2581 8.33594 14.5897 8.7461 13.2527 9.56642L11.9194 10.3845C10.6547 11.1606 10.0223 11.5486 9.67621 12.1738C9.33008 12.799 9.33008 13.5531 9.33008 15.0615V22.8818C9.33008 25.4529 9.33008 26.7385 10.1111 27.5371C10.8922 28.3359 12.1493 28.3359 14.6634 28.3359H17.3301C19.8442 28.3359 21.1013 28.3359 21.8823 27.5371C22.6634 26.7385 22.6634 25.4529 22.6634 22.8818V15.0615C22.6634 13.5531 22.6634 12.799 22.3173 12.1738C21.9711 11.5486 21.3387 11.1606 20.0741 10.3845Z" stroke="#111111" stroke-width="2" stroke-linecap="round" stroke-linejoin="round"/>
<path d="M14.6634 8.47745C13.8117 7.66013 13.3022 7.23046 12.6599 7.06904C11.9133 6.88136 11.1289 7.09184 9.56008 7.5128L7.99552 7.93262C6.51144 8.33085 5.7694 8.52997 5.25391 9.02173C4.7384 9.5135 4.53864 10.2128 4.13913 11.6114L2.06777 18.8628C1.38675 21.2469 1.04624 22.4389 1.62425 23.3781C2.12123 24.1856 4.10808 25.1785 5.99675 25.6667" stroke="#111111" stroke-width="2" stroke-linecap="round" stroke-linejoin="round"/>
<path d="M15.323 12.3307C16.4447 11.5848 17.4405 10.3879 18.0591 8.89944C19.3365 5.82622 18.5226 2.67372 16.2415 1.85812C13.9603 1.0425 11.0755 2.87265 9.79834 5.94586C9.58474 6.45962 9.42968 6.97561 9.33008 7.4825" stroke="#111111" stroke-width="2" stroke-linecap="round"/>
</svg>
