<svg width="26" height="26" viewBox="0 0 26 26" fill="none" xmlns="http://www.w3.org/2000/svg">
<path d="M21.7492 1.33398H14.7492C13.1384 1.33398 11.8325 2.63982 11.8325 4.25065V11.2507C11.8325 12.8615 13.1384 14.1673 14.7492 14.1673H21.7492C23.36 14.1673 24.6659 12.8615 24.6659 11.2507V4.25065C24.6659 2.63982 23.36 1.33398 21.7492 1.33398Z" stroke="white" stroke-width="2.1" stroke-linecap="round" stroke-linejoin="round"/>
<path d="M11.8325 6.58496C9.46707 6.58922 8.22839 6.6473 7.43679 7.43889C6.58252 8.29317 6.58252 9.6681 6.58252 12.418V13.5846C6.58252 16.3345 6.58252 17.7094 7.43679 18.5637C8.29107 19.418 9.666 19.418 12.4159 19.418H13.5825C16.3324 19.418 17.7073 19.418 18.5616 18.5637C19.3532 17.7721 19.4113 16.5334 19.4155 14.168" stroke="white" stroke-width="2.1" stroke-linecap="round" stroke-linejoin="round"/>
<path d="M6.58252 11.835C4.21707 11.8392 2.97839 11.8973 2.18679 12.6888C1.33252 13.5432 1.33252 14.9181 1.33252 17.6679V18.8346C1.33252 21.5844 1.33252 22.9594 2.18679 23.8137C3.04107 24.6679 4.416 24.6679 7.16585 24.6679H8.33252C11.0824 24.6679 12.4573 24.6679 13.3116 23.8137C14.1032 23.0221 14.1613 21.7834 14.1655 19.4179" stroke="white" stroke-width="2.1" stroke-linecap="round" stroke-linejoin="round"/>
</svg>
