<svg width="24" height="30" viewBox="0 0 24 30" fill="none" xmlns="http://www.w3.org/2000/svg">
<path d="M20.0741 10.3836L18.7407 9.56544C17.4038 8.74512 16.7354 8.33496 15.9967 8.33496C15.2581 8.33496 14.5897 8.74512 13.2527 9.56544L11.9194 10.3836C10.6547 11.1596 10.0223 11.5476 9.67621 12.1728C9.33008 12.798 9.33008 13.5522 9.33008 15.0606V22.8808C9.33008 25.4519 9.33008 26.7375 10.1111 27.5362C10.8922 28.335 12.1493 28.335 14.6634 28.335H17.3301C19.8442 28.335 21.1013 28.335 21.8823 27.5362C22.6634 26.7375 22.6634 25.4519 22.6634 22.8808V15.0606C22.6634 13.5522 22.6634 12.798 22.3173 12.1728C21.9711 11.5476 21.3387 11.1596 20.0741 10.3836Z" stroke="white" stroke-width="2" stroke-linecap="round" stroke-linejoin="round"/>
<path d="M14.6634 8.47745C13.8117 7.66013 13.3022 7.23046 12.6599 7.06904C11.9133 6.88136 11.1289 7.09184 9.56008 7.5128L7.99552 7.93262C6.51144 8.33085 5.7694 8.52997 5.25391 9.02173C4.7384 9.5135 4.53864 10.2128 4.13913 11.6114L2.06777 18.8628C1.38675 21.2469 1.04624 22.4389 1.62425 23.3781C2.12123 24.1856 4.10808 25.1785 5.99675 25.6667" stroke="white" stroke-width="2" stroke-linecap="round" stroke-linejoin="round"/>
<path d="M15.323 12.3317C16.4447 11.5858 17.4405 10.3889 18.0591 8.90041C19.3365 5.8272 18.5226 2.67469 16.2415 1.85909C13.9603 1.04348 11.0755 2.87363 9.79834 5.94684C9.58474 6.4606 9.42968 6.97659 9.33008 7.48348" stroke="white" stroke-width="2" stroke-linecap="round"/>
</svg>
