<svg width="60" height="60" viewBox="0 0 60 60" fill="none" xmlns="http://www.w3.org/2000/svg">
<path d="M43.8146 5.34234L41.1895 4.64291C33.7647 2.66461 30.0522 1.67549 27.1276 3.35453C24.2029 5.03357 23.2081 8.72509 21.2186 16.1081L18.4051 26.5493C16.4155 33.9322 15.4208 37.6238 17.1094 40.5319C18.7979 43.4403 22.5104 44.4293 29.9354 46.4076L32.5605 47.1072C39.9852 49.0853 43.6978 50.0745 46.6224 48.3956C49.547 46.7164 50.5419 43.0248 52.5313 35.6419L55.3448 25.2007C57.3344 17.8176 58.3291 14.1261 56.6406 11.2179C54.9521 8.30976 51.2396 7.32061 43.8146 5.34234Z" stroke="#141B34" stroke-width="4.13"/>
<path d="M43.3485 17.4413C43.3485 19.68 41.5233 21.4948 39.2719 21.4948C37.0205 21.4948 35.1953 19.68 35.1953 17.4413C35.1953 15.2025 37.0205 13.3877 39.2719 13.3877C41.5233 13.3877 43.3485 15.2025 43.3485 17.4413Z" stroke="#22CB67" stroke-width="4.13"/>
<path d="M30 54.6023L27.3812 55.3154C19.9736 57.3325 16.2699 58.3412 13.352 56.629C10.4342 54.9172 9.4418 51.1532 7.45696 43.6254L4.65001 32.9793C2.66517 25.4515 1.67275 21.6876 3.35737 18.7223C4.8146 16.1573 8.00001 16.2507 12.125 16.2504" stroke="#141B34" stroke-width="4.13" stroke-linecap="round"/>
</svg>
