<svg width="24" height="30" viewBox="0 0 24 30" fill="none" xmlns="http://www.w3.org/2000/svg">
<path d="M22.7778 18.8893V13.2467C22.7778 12.1847 22.7778 11.6537 22.5801 11.1762C22.3823 10.6987 22.0071 10.3231 21.2563 9.57215L15.1055 3.41855C14.4576 2.7704 14.1337 2.44633 13.7323 2.25431C13.6488 2.21437 13.5634 2.17892 13.4761 2.14812C13.0565 2 12.5985 2 11.6822 2C7.46822 2 5.36121 2 3.93406 3.15117C3.64574 3.38372 3.38312 3.64647 3.15066 3.9349C2 5.36266 2 7.47059 2 11.6864V17.5901C2 22.4896 2 24.9393 3.52141 26.4614C4.74612 27.6867 6.57167 27.9256 9.79167 27.9722M13.6875 2.64959V3.29917C13.6875 6.9738 13.6875 8.81111 14.8286 9.95267C15.9697 11.0942 17.8062 11.0942 21.4792 11.0942H22.1285" stroke="white" stroke-width="2.3375" stroke-linecap="round" stroke-linejoin="round"/>
<path d="M16.7257 20.1758V27.9686M16.7257 20.1758C17.3264 20.1758 18.0979 20.189 18.7121 20.2522C18.9719 20.2789 19.1018 20.2923 19.2168 20.3394C19.456 20.4374 19.6487 20.6523 19.7213 20.9017C19.7562 21.0216 19.7562 21.1585 19.7562 21.4322M16.7257 20.1758C16.1251 20.1758 15.3536 20.189 14.7393 20.2522C14.4795 20.2789 14.3496 20.2923 14.2347 20.3394C13.9955 20.4374 13.8027 20.6523 13.7302 20.9017C13.6953 21.0216 13.6953 21.1585 13.6953 21.4322" stroke="white" stroke-width="2.3375" stroke-linecap="round"/>
</svg>
