<svg width="22" height="21" viewBox="0 0 22 21" fill="none" xmlns="http://www.w3.org/2000/svg">
<path fill-rule="evenodd" clip-rule="evenodd" d="M15.9903 5.62397C16.2832 5.91686 16.2832 6.39173 15.9903 6.68463L12.4903 10.1846C12.1974 10.4775 11.7225 10.4775 11.4296 10.1846C11.1367 9.89173 11.1367 9.41686 11.4296 9.12397L14.9296 5.62397C15.2225 5.33107 15.6974 5.33107 15.9903 5.62397Z" fill="#111111"/>
<path d="M20.2577 1.45723C18.0797 -0.888342 1.69644 4.85749 1.70997 6.95529C1.72531 9.33419 8.10805 10.066 9.87716 10.5624C10.9411 10.8608 11.226 11.1668 11.4713 12.2824C12.5823 17.3348 13.1401 19.8478 14.4114 19.9039C16.4378 19.9935 22.3833 3.7463 20.2577 1.45723Z" stroke="#111111" stroke-width="1.59581"/>
</svg>
