<svg width="20" height="20" viewBox="0 0 20 20" fill="none" xmlns="http://www.w3.org/2000/svg">
<path d="M19 4.5C19 6.15685 17.6569 7.5 16 7.5C14.3431 7.5 13 6.15685 13 4.5C13 2.84315 14.3431 1.5 16 1.5C17.6569 1.5 19 2.84315 19 4.5Z" stroke="#717578" stroke-width="1.5"/>
<path d="M7 10C7 11.6569 5.65685 13 4 13C2.34315 13 1 11.6569 1 10C1 8.3431 2.34315 7 4 7C5.65685 7 7 8.3431 7 10Z" stroke="#717578" stroke-width="1.5"/>
<path d="M19 15.5C19 17.1569 17.6569 18.5 16 18.5C14.3431 18.5 13 17.1569 13 15.5C13 13.8431 14.3431 12.5 16 12.5C17.6569 12.5 19 13.8431 19 15.5Z" stroke="#717578" stroke-width="1.5"/>
<path d="M6.73047 8.7495L13.2304 5.75M6.73047 11.25L13.2304 14.2495" stroke="#717578" stroke-width="1.5"/>
</svg>
