<svg width="21" height="22" viewBox="0 0 21 22" fill="none" xmlns="http://www.w3.org/2000/svg">
<path d="M16.1139 12.526L16.8977 14.1065C17.0045 14.3265 17.2896 14.5376 17.5301 14.5779L18.9507 14.816C19.8591 14.9686 20.0729 15.6332 19.4183 16.2887L18.3139 17.4022C18.1268 17.5909 18.0244 17.9545 18.0823 18.215L18.3985 19.5934C18.6479 20.6845 18.0734 21.1066 17.1159 20.5363L15.7844 19.7416C15.5439 19.598 15.1475 19.598 14.9026 19.7416L13.5711 20.5363C12.618 21.1066 12.0391 20.6801 12.2886 19.5934L12.6047 18.215C12.6626 17.9545 12.5601 17.5909 12.3732 17.4022L11.2687 16.2887C10.6185 15.6332 10.8278 14.9686 11.7363 14.816L13.1569 14.5779C13.3929 14.5376 13.6779 14.3265 13.7848 14.1065L14.5686 12.526C14.9962 11.6684 15.6909 11.6684 16.1139 12.526Z" stroke="#111111" stroke-width="1.4846" stroke-linecap="round" stroke-linejoin="round"/>
<path d="M16.3456 1V2.97947M4.46875 1V2.97947" stroke="#111111" stroke-width="1.4846" stroke-linecap="round" stroke-linejoin="round"/>
<path d="M19.8047 10.401C19.8007 6.57436 19.7324 4.58934 18.5657 3.32803C17.3265 1.98828 15.3319 1.98828 11.3427 1.98828H9.46224C5.4731 1.98828 3.47854 1.98828 2.23927 3.32803C1 4.66777 1 6.82407 1 11.1366V11.6449C1 15.9575 1 18.1138 2.23927 19.4536C3.42084 20.7309 5.28901 20.7904 8.91789 20.7932" stroke="#111111" stroke-width="1.4846" stroke-linecap="round" stroke-linejoin="round"/>
<path d="M1.5 6.94531H19.3153" stroke="#111111" stroke-width="1.4846" stroke-linecap="round" stroke-linejoin="round"/>
</svg>
