<svg width="24" height="24" viewBox="0 0 24 24" fill="none" xmlns="http://www.w3.org/2000/svg">
<path d="M18.2602 13.788L19.1181 15.518C19.2351 15.7588 19.5471 15.9898 19.8103 16.034L21.3652 16.2945C22.3596 16.4616 22.5936 17.189 21.8771 17.9065L20.6682 19.1254C20.4635 19.3319 20.3513 19.7299 20.4147 20.015L20.7608 21.5238C21.0338 22.718 20.405 23.1801 19.3569 22.5559L17.8995 21.6859C17.6363 21.5288 17.2024 21.5288 16.9344 21.6859L15.4769 22.5559C14.4337 23.1801 13.8001 22.7132 14.0731 21.5238L14.4191 20.015C14.4825 19.7299 14.3704 19.3319 14.1657 19.1254L12.9568 17.9065C12.2451 17.189 12.4742 16.4616 13.4686 16.2945L15.0236 16.034C15.2819 15.9898 15.5939 15.7588 15.7109 15.518L16.5688 13.788C17.0368 12.8493 17.7972 12.8493 18.2602 13.788Z" stroke="white" stroke-width="1.625" stroke-linecap="round" stroke-linejoin="round"/>
<path d="M18.5 1.16602V3.33268M5.5 1.16602V3.33268" stroke="white" stroke-width="1.625" stroke-linecap="round" stroke-linejoin="round"/>
<path d="M22.29 11.4583C22.2857 7.26978 22.211 5.09703 20.9339 3.71644C19.5775 2.25 17.3942 2.25 13.0279 2.25H10.9695C6.60315 2.25 4.41996 2.25 3.06349 3.71644C1.70703 5.18289 1.70703 7.5431 1.70703 12.2635V12.8199C1.70703 17.5403 1.70703 19.9004 3.06349 21.3669C4.3568 22.7651 6.40165 22.8302 10.3737 22.8332" stroke="white" stroke-width="1.625" stroke-linecap="round" stroke-linejoin="round"/>
<path d="M2.25 7.66602H21.75" stroke="white" stroke-width="1.625" stroke-linecap="round" stroke-linejoin="round"/>
</svg>
