<svg width="24" height="26" viewBox="0 0 24 26" fill="none" xmlns="http://www.w3.org/2000/svg">
<path d="M2.66406 8.33203C2.66406 5.0322 2.66406 3.38228 3.83564 2.35716C5.00721 1.33203 6.89282 1.33203 10.664 1.33203H13.3308C17.1019 1.33203 18.9876 1.33203 20.1592 2.35716C21.3307 3.38228 21.3307 5.0322 21.3307 8.33203V18.832H2.66406V8.33203Z" stroke="#111111" stroke-width="2.1" stroke-linejoin="round"/>
<path d="M1.5 18.832H22.5" stroke="#111111" stroke-width="2.1" stroke-linecap="round"/>
<path d="M10.4818 5.49483C11.9171 5.28914 14.2953 5.37142 12.327 7.34607C9.86678 9.81439 6.17646 15.3684 10.4818 13.5171C14.7873 11.6659 16.6327 12.9 14.7875 14.7513" stroke="#111111" stroke-width="2.1" stroke-linecap="round" stroke-linejoin="round"/>
<path d="M12 18.832V23.4987" stroke="#111111" stroke-width="2.1" stroke-linecap="round"/>
<path d="M3.83594 24.6654L7.33594 18.832" stroke="#111111" stroke-width="2.1" stroke-linecap="round"/>
<path d="M20.1641 24.6654L16.6641 18.832" stroke="#111111" stroke-width="2.1" stroke-linecap="round"/>
</svg>
