<svg width="24" height="26" viewBox="0 0 24 26" fill="none" xmlns="http://www.w3.org/2000/svg">
<path d="M2.66504 8.33252C2.66504 5.03268 2.66504 3.38277 3.83662 2.35765C5.00818 1.33252 6.8938 1.33252 10.665 1.33252H13.3318C17.1029 1.33252 18.9886 1.33252 20.1601 2.35765C21.3317 3.38277 21.3317 5.03268 21.3317 8.33252V18.8325H2.66504V8.33252Z" stroke="white" stroke-width="2.1" stroke-linejoin="round"/>
<path d="M1.5 18.8325H22.5" stroke="white" stroke-width="2.1" stroke-linecap="round"/>
<path d="M10.4818 5.49434C11.9171 5.28865 14.2953 5.37093 12.327 7.34559C9.86678 9.8139 6.17646 15.3679 10.4818 13.5166C14.7873 11.6654 16.6327 12.8995 14.7875 14.7508" stroke="white" stroke-width="2.1" stroke-linecap="round" stroke-linejoin="round"/>
<path d="M12 18.8325V23.4992" stroke="white" stroke-width="2.1" stroke-linecap="round"/>
<path d="M3.83496 24.6659L7.33496 18.8325" stroke="white" stroke-width="2.1" stroke-linecap="round"/>
<path d="M20.165 24.6659L16.665 18.8325" stroke="white" stroke-width="2.1" stroke-linecap="round"/>
</svg>
