<svg width="28" height="28" viewBox="0 0 28 28" fill="none" xmlns="http://www.w3.org/2000/svg">
<path d="M14 25.6659C13.0454 25.6659 12.1336 25.2818 10.3098 24.5135C5.76991 22.6015 3.5 21.6454 3.5 20.0372V8.79858M14 25.6659C14.9546 25.6659 15.8664 25.2818 17.6903 24.5135C22.2301 22.6015 24.5 21.6454 24.5 20.0372V8.79858M14 25.6659V14.0333M3.5 8.79858C3.5 9.5131 4.43516 9.96429 6.30551 10.8667L9.71357 12.511C11.8169 13.5259 12.8687 14.0333 14 14.0333M3.5 8.79858C3.5 8.08407 4.43516 7.63288 6.30551 6.73049L8.16667 5.83252M24.5 8.79858C24.5 9.5131 23.5648 9.96429 21.6945 10.8667L18.2864 12.511C16.1831 13.5259 15.1313 14.0333 14 14.0333M24.5 8.79858C24.5 8.08407 23.5648 7.63287 21.6945 6.73049L19.8854 5.85761M7 15.1965L9.33333 16.3598" stroke="white" stroke-width="2.1" stroke-linecap="round" stroke-linejoin="round"/>
<path d="M13.9941 10.4992V2.33258M13.9941 2.33258C13.6871 2.32843 13.3844 2.54285 13.1609 2.80462L11.665 4.59382M13.9941 2.33258C14.2902 2.33658 14.59 2.54989 14.8271 2.80462L16.3317 4.59382" stroke="white" stroke-width="2.1" stroke-linecap="round"/>
</svg>
