<svg width="28" height="28" viewBox="0 0 28 28" fill="none" xmlns="http://www.w3.org/2000/svg">
<path d="M14 25.6654C13.0454 25.6654 12.1336 25.2813 10.3098 24.513C5.76991 22.601 3.5 21.6449 3.5 20.0367V8.79809M14 25.6654C14.9546 25.6654 15.8664 25.2813 17.6903 24.513C22.2301 22.601 24.5 21.6449 24.5 20.0367V8.79809M14 25.6654V14.0328M3.5 8.79809C3.5 9.51261 4.43516 9.9638 6.30551 10.8662L9.71357 12.5105C11.8169 13.5254 12.8687 14.0328 14 14.0328M3.5 8.79809C3.5 8.08358 4.43516 7.6324 6.30551 6.73L8.16667 5.83203M24.5 8.79809C24.5 9.51261 23.5648 9.9638 21.6945 10.8662L18.2864 12.5105C16.1831 13.5254 15.1313 14.0328 14 14.0328M24.5 8.79809C24.5 8.08358 23.5648 7.63238 21.6945 6.73L19.8854 5.85713M7 15.196L9.33333 16.3593" stroke="#111111" stroke-width="2.1" stroke-linecap="round" stroke-linejoin="round"/>
<path d="M13.9931 10.4987V2.33209M13.9931 2.33209C13.6861 2.32794 13.3834 2.54236 13.16 2.80414L11.6641 4.59334M13.9931 2.33209C14.2892 2.33609 14.589 2.54941 14.8261 2.80414L16.3307 4.59334" stroke="#111111" stroke-width="2.1" stroke-linecap="round"/>
</svg>
