<svg width="72" height="72" viewBox="0 0 72 72" fill="none" xmlns="http://www.w3.org/2000/svg">
<rect width="72" height="72" rx="16" fill="#22CB67" fill-opacity="0.26"/>
<path d="M57.5677 46.6464L57.577 46.6413H57.5589L46.9326 40.8833L36.2887 35.1152L25.6443 40.8833L15.0181 46.6413H15L15.0093 46.6464L15 46.6515H15.0181L25.6443 52.4094L36.2887 58.1775L46.9326 52.4094L57.5589 46.6515H57.577L57.5677 46.6464Z" fill="white" fill-opacity="0.6"/>
<path d="M57.5677 24.5312L57.577 24.5265H57.5589L46.9326 18.7681L36.2887 13L25.6443 18.7681L15.0181 24.5265H15L15.0093 24.5312L15 24.5362H15.0181L25.6443 30.2946L36.2887 36.0627L46.9326 30.2946L57.5589 24.5362H57.577L57.5677 24.5312Z" fill="#22CB67"/>
<path d="M15.0195 24.0625V47.1151L36.2901 35.589L15.0195 24.0625Z" fill="#22CB67" fill-opacity="0.5"/>
<path d="M57.5593 24.0625V47.1151L36.2891 35.589L57.5593 24.0625Z" fill="#22CB67" fill-opacity="0.5"/>
</svg>
