<svg width="490" height="583" viewBox="0 0 490 583" fill="none" xmlns="http://www.w3.org/2000/svg">
<g filter="url(#filter0_d_6680_105799)">
<rect x="56" y="37" width="404" height="519" rx="16.9851" fill="white" shape-rendering="crispEdges"/>
<path d="M106.744 184.538C106.744 185.426 106.53 186.258 106.102 187.035C105.69 187.812 105.032 188.438 104.129 188.914C103.241 189.389 102.115 189.627 100.752 189.627H97.9699V196H94.6408V179.402H100.752C102.036 179.402 103.13 179.624 104.034 180.068C104.937 180.512 105.611 181.122 106.055 181.899C106.515 182.676 106.744 183.556 106.744 184.538ZM100.609 186.94C101.529 186.94 102.21 186.734 102.654 186.322C103.098 185.894 103.32 185.299 103.32 184.538C103.32 182.921 102.417 182.113 100.609 182.113H97.9699V186.94H100.609ZM112.437 184.871C112.865 184.174 113.42 183.627 114.102 183.231C114.799 182.834 115.592 182.636 116.48 182.636V186.132H115.6C114.553 186.132 113.761 186.377 113.222 186.869C112.699 187.36 112.437 188.216 112.437 189.437V196H109.108V182.826H112.437V184.871ZM124.572 196.214C123.303 196.214 122.162 195.937 121.147 195.382C120.133 194.811 119.332 194.01 118.746 192.98C118.175 191.95 117.89 190.761 117.89 189.413C117.89 188.066 118.183 186.877 118.769 185.846C119.372 184.816 120.188 184.023 121.219 183.468C122.249 182.898 123.398 182.612 124.667 182.612C125.935 182.612 127.084 182.898 128.115 183.468C129.145 184.023 129.954 184.816 130.54 185.846C131.143 186.877 131.444 188.066 131.444 189.413C131.444 190.761 131.135 191.95 130.516 192.98C129.914 194.01 129.09 194.811 128.043 195.382C127.013 195.937 125.856 196.214 124.572 196.214ZM124.572 193.313C125.174 193.313 125.737 193.17 126.26 192.885C126.799 192.584 127.227 192.14 127.544 191.553C127.861 190.967 128.02 190.253 128.02 189.413C128.02 188.161 127.687 187.202 127.021 186.536C126.371 185.854 125.57 185.513 124.619 185.513C123.668 185.513 122.867 185.854 122.217 186.536C121.583 187.202 121.266 188.161 121.266 189.413C121.266 190.666 121.575 191.633 122.194 192.314C122.828 192.98 123.62 193.313 124.572 193.313ZM135.574 181.257C134.972 181.257 134.472 181.075 134.076 180.71C133.695 180.33 133.505 179.862 133.505 179.307C133.505 178.752 133.695 178.292 134.076 177.928C134.472 177.547 134.972 177.357 135.574 177.357C136.161 177.357 136.644 177.547 137.025 177.928C137.405 178.292 137.595 178.752 137.595 179.307C137.595 179.862 137.405 180.33 137.025 180.71C136.644 181.075 136.161 181.257 135.574 181.257ZM137.215 198.164C137.215 199.622 136.85 200.669 136.121 201.303C135.408 201.953 134.377 202.278 133.03 202.278H131.555V199.448H132.507C133.014 199.448 133.371 199.345 133.577 199.139C133.783 198.949 133.886 198.632 133.886 198.188V182.826H137.215V198.164ZM152.75 189.128C152.75 189.603 152.719 190.031 152.655 190.412H143.025C143.104 191.363 143.437 192.108 144.023 192.647C144.61 193.186 145.331 193.456 146.187 193.456C147.424 193.456 148.304 192.925 148.827 191.862H152.417C152.037 193.131 151.308 194.177 150.23 195.001C149.152 195.81 147.828 196.214 146.259 196.214C144.99 196.214 143.849 195.937 142.834 195.382C141.836 194.811 141.051 194.01 140.48 192.98C139.925 191.95 139.648 190.761 139.648 189.413C139.648 188.05 139.925 186.853 140.48 185.823C141.035 184.792 141.812 183.999 142.811 183.445C143.809 182.89 144.959 182.612 146.259 182.612C147.511 182.612 148.629 182.882 149.611 183.421C150.61 183.96 151.379 184.729 151.918 185.727C152.473 186.71 152.75 187.844 152.75 189.128ZM149.302 188.177C149.286 187.321 148.977 186.639 148.375 186.132C147.772 185.608 147.035 185.347 146.163 185.347C145.339 185.347 144.642 185.601 144.071 186.108C143.516 186.599 143.175 187.289 143.048 188.177H149.302ZM154.324 189.413C154.324 188.05 154.602 186.861 155.156 185.846C155.711 184.816 156.48 184.023 157.463 183.468C158.446 182.898 159.571 182.612 160.84 182.612C162.472 182.612 163.82 183.024 164.882 183.849C165.96 184.657 166.681 185.799 167.046 187.273H163.455C163.265 186.702 162.94 186.258 162.48 185.941C162.037 185.608 161.482 185.442 160.816 185.442C159.865 185.442 159.112 185.791 158.557 186.488C158.002 187.17 157.725 188.145 157.725 189.413C157.725 190.666 158.002 191.64 158.557 192.338C159.112 193.02 159.865 193.361 160.816 193.361C162.163 193.361 163.043 192.758 163.455 191.553H167.046C166.681 192.98 165.96 194.114 164.882 194.954C163.804 195.794 162.457 196.214 160.84 196.214C159.571 196.214 158.446 195.937 157.463 195.382C156.48 194.811 155.711 194.018 155.156 193.004C154.602 191.973 154.324 190.777 154.324 189.413ZM173.361 185.561V191.934C173.361 192.378 173.464 192.703 173.67 192.909C173.892 193.099 174.257 193.194 174.764 193.194H176.309V196H174.217C171.411 196 170.008 194.637 170.008 191.91V185.561H168.439V182.826H170.008V179.569H173.361V182.826H176.309V185.561H173.361ZM196.474 184.538C196.474 185.426 196.26 186.258 195.832 187.035C195.419 187.812 194.762 188.438 193.858 188.914C192.97 189.389 191.845 189.627 190.481 189.627H187.699V196H184.37V179.402H190.481C191.765 179.402 192.859 179.624 193.763 180.068C194.666 180.512 195.34 181.122 195.784 181.899C196.244 182.676 196.474 183.556 196.474 184.538ZM190.339 186.94C191.258 186.94 191.94 186.734 192.384 186.322C192.828 185.894 193.049 185.299 193.049 184.538C193.049 182.921 192.146 182.113 190.339 182.113H187.699V186.94H190.339ZM202.166 184.871C202.594 184.174 203.149 183.627 203.831 183.231C204.528 182.834 205.321 182.636 206.209 182.636V186.132H205.329C204.283 186.132 203.49 186.377 202.951 186.869C202.428 187.36 202.166 188.216 202.166 189.437V196H198.837V182.826H202.166V184.871ZM210.139 181.257C209.553 181.257 209.061 181.075 208.665 180.71C208.285 180.33 208.094 179.862 208.094 179.307C208.094 178.752 208.285 178.292 208.665 177.928C209.061 177.547 209.553 177.357 210.139 177.357C210.726 177.357 211.21 177.547 211.59 177.928C211.986 178.292 212.184 178.752 212.184 179.307C212.184 179.862 211.986 180.33 211.59 180.71C211.21 181.075 210.726 181.257 210.139 181.257ZM211.78 182.826V196H208.451V182.826H211.78ZM214.213 189.413C214.213 188.05 214.491 186.861 215.046 185.846C215.6 184.816 216.369 184.023 217.352 183.468C218.335 182.898 219.461 182.612 220.729 182.612C222.362 182.612 223.709 183.024 224.771 183.849C225.849 184.657 226.571 185.799 226.935 187.273H223.345C223.154 186.702 222.829 186.258 222.37 185.941C221.926 185.608 221.371 185.442 220.705 185.442C219.754 185.442 219.001 185.791 218.446 186.488C217.891 187.17 217.614 188.145 217.614 189.413C217.614 190.666 217.891 191.64 218.446 192.338C219.001 193.02 219.754 193.361 220.705 193.361C222.053 193.361 222.932 192.758 223.345 191.553H226.935C226.571 192.98 225.849 194.114 224.771 194.954C223.693 195.794 222.346 196.214 220.729 196.214C219.461 196.214 218.335 195.937 217.352 195.382C216.369 194.811 215.6 194.018 215.046 193.004C214.491 191.973 214.213 190.777 214.213 189.413ZM241.62 189.128C241.62 189.603 241.589 190.031 241.525 190.412H231.895C231.974 191.363 232.307 192.108 232.893 192.647C233.48 193.186 234.201 193.456 235.057 193.456C236.294 193.456 237.174 192.925 237.697 191.862H241.287C240.907 193.131 240.178 194.177 239.1 195.001C238.022 195.81 236.698 196.214 235.129 196.214C233.86 196.214 232.719 195.937 231.704 195.382C230.706 194.811 229.921 194.01 229.35 192.98C228.795 191.95 228.518 190.761 228.518 189.413C228.518 188.05 228.795 186.853 229.35 185.823C229.905 184.792 230.682 183.999 231.681 183.445C232.679 182.89 233.829 182.612 235.129 182.612C236.381 182.612 237.499 182.882 238.481 183.421C239.48 183.96 240.249 184.729 240.788 185.727C241.343 186.71 241.62 187.844 241.62 189.128ZM238.172 188.177C238.156 187.321 237.847 186.639 237.245 186.132C236.643 185.608 235.905 185.347 235.033 185.347C234.209 185.347 233.512 185.601 232.941 186.108C232.386 186.599 232.045 187.289 231.918 188.177H238.172ZM340.884 191.22C340.884 192.045 340.67 192.822 340.242 193.551C339.83 194.264 339.212 194.859 338.388 195.334C337.579 195.794 336.62 196.063 335.51 196.143V198.069H333.988V196.119C332.403 195.976 331.127 195.501 330.16 194.692C329.193 193.868 328.694 192.758 328.662 191.363H332.229C332.324 192.504 332.91 193.194 333.988 193.432V188.89C332.847 188.605 331.928 188.319 331.23 188.034C330.532 187.749 329.93 187.289 329.423 186.655C328.915 186.021 328.662 185.157 328.662 184.063C328.662 182.684 329.153 181.558 330.136 180.686C331.135 179.814 332.419 179.315 333.988 179.188V177.262H335.51V179.188C337.032 179.315 338.245 179.775 339.148 180.567C340.068 181.36 340.583 182.454 340.694 183.849H337.103C337.056 183.389 336.889 182.993 336.604 182.66C336.335 182.311 335.97 182.065 335.51 181.923V186.417C336.699 186.718 337.635 187.011 338.316 187.297C339.014 187.566 339.616 188.018 340.123 188.652C340.631 189.27 340.884 190.127 340.884 191.22ZM332.134 183.896C332.134 184.42 332.292 184.848 332.609 185.18C332.926 185.498 333.386 185.759 333.988 185.965V181.851C333.418 181.931 332.966 182.145 332.633 182.493C332.3 182.842 332.134 183.31 332.134 183.896ZM335.51 193.479C336.113 193.368 336.58 193.123 336.913 192.742C337.262 192.362 337.436 191.902 337.436 191.363C337.436 190.84 337.27 190.42 336.937 190.103C336.604 189.786 336.128 189.524 335.51 189.318V193.479ZM343.816 181.732V178.665H349.547V196H346.123V181.732H343.816ZM364.488 181.542H356.783V185.608C357.116 185.196 357.592 184.863 358.21 184.61C358.828 184.34 359.486 184.206 360.184 184.206C361.452 184.206 362.49 184.483 363.299 185.038C364.107 185.593 364.694 186.306 365.058 187.178C365.423 188.034 365.605 188.953 365.605 189.936C365.605 191.759 365.082 193.226 364.036 194.335C363.005 195.445 361.531 196 359.613 196C357.806 196 356.363 195.548 355.285 194.645C354.207 193.741 353.597 192.56 353.454 191.101H356.688C356.831 191.736 357.148 192.243 357.639 192.623C358.146 193.004 358.789 193.194 359.565 193.194C360.501 193.194 361.206 192.901 361.682 192.314C362.157 191.728 362.395 190.951 362.395 189.984C362.395 189.001 362.149 188.256 361.658 187.749C361.182 187.225 360.477 186.964 359.542 186.964C358.876 186.964 358.321 187.13 357.877 187.463C357.433 187.796 357.116 188.24 356.926 188.795H353.739V178.617H364.488V181.542ZM371.991 191.125C372.118 191.823 372.403 192.362 372.847 192.742C373.307 193.107 373.917 193.289 374.678 193.289C375.661 193.289 376.375 192.885 376.818 192.076C377.262 191.252 377.484 189.873 377.484 187.939C377.12 188.446 376.604 188.842 375.939 189.128C375.289 189.413 374.583 189.556 373.822 189.556C372.808 189.556 371.888 189.35 371.064 188.938C370.255 188.51 369.613 187.883 369.138 187.059C368.662 186.219 368.424 185.204 368.424 184.015C368.424 182.256 368.947 180.861 369.994 179.83C371.04 178.784 372.467 178.261 374.274 178.261C376.525 178.261 378.11 178.982 379.03 180.425C379.965 181.867 380.433 184.039 380.433 186.94C380.433 189.001 380.251 190.689 379.886 192.005C379.537 193.321 378.927 194.32 378.055 195.001C377.199 195.683 376.026 196.024 374.536 196.024C373.362 196.024 372.364 195.802 371.539 195.358C370.715 194.898 370.081 194.304 369.637 193.575C369.209 192.829 368.963 192.013 368.9 191.125H371.991ZM374.512 186.845C375.336 186.845 375.986 186.591 376.462 186.084C376.937 185.577 377.175 184.895 377.175 184.039C377.175 183.104 376.921 182.382 376.414 181.875C375.923 181.352 375.249 181.09 374.393 181.09C373.537 181.09 372.855 181.36 372.348 181.899C371.856 182.422 371.611 183.12 371.611 183.992C371.611 184.832 371.849 185.521 372.324 186.06C372.816 186.583 373.545 186.845 374.512 186.845ZM386.876 191.125C387.003 191.823 387.289 192.362 387.732 192.742C388.192 193.107 388.803 193.289 389.563 193.289C390.546 193.289 391.26 192.885 391.704 192.076C392.147 191.252 392.369 189.873 392.369 187.939C392.005 188.446 391.49 188.842 390.824 189.128C390.174 189.413 389.468 189.556 388.707 189.556C387.693 189.556 386.773 189.35 385.949 188.938C385.141 188.51 384.499 187.883 384.023 187.059C383.547 186.219 383.31 185.204 383.31 184.015C383.31 182.256 383.833 180.861 384.879 179.83C385.925 178.784 387.352 178.261 389.159 178.261C391.41 178.261 392.996 178.982 393.915 180.425C394.85 181.867 395.318 184.039 395.318 186.94C395.318 189.001 395.136 190.689 394.771 192.005C394.422 193.321 393.812 194.32 392.94 195.001C392.084 195.683 390.911 196.024 389.421 196.024C388.248 196.024 387.249 195.802 386.425 195.358C385.6 194.898 384.966 194.304 384.522 193.575C384.094 192.829 383.849 192.013 383.785 191.125H386.876ZM389.397 186.845C390.221 186.845 390.871 186.591 391.347 186.084C391.823 185.577 392.06 184.895 392.06 184.039C392.06 183.104 391.807 182.382 391.299 181.875C390.808 181.352 390.134 181.09 389.278 181.09C388.422 181.09 387.74 181.36 387.233 181.899C386.742 182.422 386.496 183.12 386.496 183.992C386.496 184.832 386.734 185.521 387.209 186.06C387.701 186.583 388.43 186.845 389.397 186.845Z" fill="black"/>
<path d="M104.568 235.806V238.578H107.829V239.842H104.568V242.736H108.237V244H103.019V234.543H108.237V235.806H104.568ZM109.9 240.223C109.9 239.471 110.054 238.805 110.362 238.225C110.679 237.645 111.105 237.197 111.64 236.88C112.183 236.554 112.786 236.391 113.447 236.391C114.027 236.391 114.538 236.508 114.982 236.744C115.435 236.979 115.784 237.265 116.029 237.6V236.513H117.591V247.56H116.029V242.913C115.784 243.248 115.431 243.533 114.969 243.769C114.507 244.005 113.981 244.122 113.392 244.122C112.749 244.122 112.16 243.959 111.626 243.633C111.101 243.298 110.679 242.836 110.362 242.247C110.054 241.649 109.9 240.974 109.9 240.223ZM116.029 240.25C116.029 239.733 115.92 239.285 115.702 238.904C115.494 238.524 115.218 238.234 114.874 238.035C114.529 237.836 114.158 237.736 113.759 237.736C113.361 237.736 112.989 237.836 112.645 238.035C112.301 238.225 112.02 238.51 111.803 238.891C111.594 239.262 111.49 239.706 111.49 240.223C111.49 240.739 111.594 241.192 111.803 241.581C112.02 241.971 112.301 242.27 112.645 242.478C112.998 242.677 113.37 242.777 113.759 242.777C114.158 242.777 114.529 242.677 114.874 242.478C115.218 242.279 115.494 241.989 115.702 241.608C115.92 241.219 116.029 240.766 116.029 240.25ZM126.678 236.513V244H125.129V243.117C124.884 243.425 124.563 243.669 124.164 243.851C123.775 244.023 123.358 244.109 122.914 244.109C122.325 244.109 121.795 243.986 121.324 243.742C120.862 243.497 120.495 243.135 120.224 242.655C119.961 242.175 119.83 241.595 119.83 240.915V236.513H121.365V240.685C121.365 241.355 121.533 241.871 121.868 242.234C122.203 242.587 122.66 242.763 123.24 242.763C123.82 242.763 124.277 242.587 124.613 242.234C124.957 241.871 125.129 241.355 125.129 240.685V236.513H126.678ZM129.782 235.521C129.501 235.521 129.265 235.426 129.075 235.236C128.885 235.045 128.79 234.81 128.79 234.529C128.79 234.248 128.885 234.013 129.075 233.823C129.265 233.632 129.501 233.537 129.782 233.537C130.054 233.537 130.285 233.632 130.475 233.823C130.665 234.013 130.76 234.248 130.76 234.529C130.76 234.81 130.665 235.045 130.475 235.236C130.285 235.426 130.054 235.521 129.782 235.521ZM130.543 236.513V244H128.994V236.513H130.543ZM134.397 237.614C134.66 237.269 135.018 236.979 135.471 236.744C135.924 236.508 136.435 236.391 137.006 236.391C137.658 236.391 138.252 236.554 138.786 236.88C139.33 237.197 139.755 237.645 140.063 238.225C140.371 238.805 140.525 239.471 140.525 240.223C140.525 240.974 140.371 241.649 140.063 242.247C139.755 242.836 139.33 243.298 138.786 243.633C138.252 243.959 137.658 244.122 137.006 244.122C136.435 244.122 135.928 244.009 135.484 243.783C135.04 243.547 134.678 243.257 134.397 242.913V247.56H132.848V236.513H134.397V237.614ZM138.949 240.223C138.949 239.706 138.841 239.262 138.623 238.891C138.415 238.51 138.134 238.225 137.781 238.035C137.436 237.836 137.065 237.736 136.666 237.736C136.277 237.736 135.906 237.836 135.552 238.035C135.208 238.234 134.927 238.524 134.71 238.904C134.501 239.285 134.397 239.733 134.397 240.25C134.397 240.766 134.501 241.219 134.71 241.608C134.927 241.989 135.208 242.279 135.552 242.478C135.906 242.677 136.277 242.777 136.666 242.777C137.065 242.777 137.436 242.677 137.781 242.478C138.134 242.27 138.415 241.971 138.623 241.581C138.841 241.192 138.949 240.739 138.949 240.223ZM151.392 236.391C151.981 236.391 152.507 236.513 152.969 236.758C153.44 237.002 153.807 237.364 154.069 237.845C154.341 238.325 154.477 238.904 154.477 239.584V244H152.941V239.815C152.941 239.145 152.774 238.633 152.439 238.279C152.103 237.917 151.646 237.736 151.066 237.736C150.486 237.736 150.024 237.917 149.68 238.279C149.345 238.633 149.177 239.145 149.177 239.815V244H147.642V239.815C147.642 239.145 147.474 238.633 147.139 238.279C146.804 237.917 146.347 237.736 145.767 237.736C145.187 237.736 144.725 237.917 144.381 238.279C144.046 238.633 143.878 239.145 143.878 239.815V244H142.329V236.513H143.878V237.369C144.132 237.061 144.453 236.821 144.843 236.649C145.232 236.477 145.649 236.391 146.093 236.391C146.691 236.391 147.225 236.517 147.696 236.771C148.167 237.025 148.53 237.392 148.783 237.872C149.01 237.419 149.363 237.061 149.843 236.798C150.323 236.527 150.84 236.391 151.392 236.391ZM163.582 240.073C163.582 240.354 163.564 240.608 163.527 240.834H157.807C157.852 241.432 158.074 241.912 158.473 242.274C158.871 242.637 159.36 242.818 159.94 242.818C160.774 242.818 161.362 242.469 161.707 241.772H163.378C163.151 242.46 162.739 243.026 162.141 243.47C161.553 243.905 160.819 244.122 159.94 244.122C159.224 244.122 158.581 243.964 158.011 243.647C157.449 243.321 157.005 242.868 156.679 242.288C156.362 241.699 156.203 241.02 156.203 240.25C156.203 239.48 156.357 238.805 156.665 238.225C156.982 237.636 157.422 237.183 157.983 236.866C158.554 236.549 159.206 236.391 159.94 236.391C160.647 236.391 161.276 236.545 161.829 236.853C162.381 237.161 162.812 237.595 163.12 238.157C163.428 238.71 163.582 239.348 163.582 240.073ZM161.965 239.584C161.956 239.013 161.752 238.556 161.353 238.211C160.955 237.867 160.461 237.695 159.872 237.695C159.338 237.695 158.88 237.867 158.5 238.211C158.119 238.547 157.893 239.004 157.82 239.584H161.965ZM169.155 236.391C169.744 236.391 170.27 236.513 170.732 236.758C171.203 237.002 171.57 237.364 171.832 237.845C172.095 238.325 172.226 238.904 172.226 239.584V244H170.691V239.815C170.691 239.145 170.523 238.633 170.188 238.279C169.853 237.917 169.395 237.736 168.816 237.736C168.236 237.736 167.774 237.917 167.43 238.279C167.095 238.633 166.927 239.145 166.927 239.815V244H165.378V236.513H166.927V237.369C167.181 237.061 167.502 236.821 167.892 236.649C168.29 236.477 168.712 236.391 169.155 236.391ZM176.281 237.777V241.921C176.281 242.202 176.345 242.406 176.471 242.532C176.607 242.65 176.834 242.709 177.151 242.709H178.102V244H176.879C176.182 244 175.647 243.837 175.276 243.511C174.904 243.185 174.719 242.655 174.719 241.921V237.777H173.835V236.513H174.719V234.651H176.281V236.513H178.102V237.777H176.281Z" fill="black"/>
<path d="M355.896 241.31C355.896 241.762 355.783 242.188 355.557 242.587C355.339 242.985 355.013 243.321 354.578 243.592C354.152 243.864 353.645 244.027 353.056 244.082V245.182H352.173V244.082C351.322 244 350.633 243.733 350.108 243.28C349.582 242.827 349.32 242.229 349.32 241.486H350.977C351.005 241.839 351.118 242.134 351.317 242.369C351.516 242.596 351.802 242.741 352.173 242.804V239.815C351.566 239.661 351.073 239.507 350.692 239.353C350.312 239.19 349.985 238.936 349.714 238.592C349.451 238.248 349.32 237.777 349.32 237.179C349.32 236.427 349.582 235.806 350.108 235.317C350.633 234.819 351.322 234.529 352.173 234.448V233.347H353.056V234.448C353.854 234.52 354.492 234.774 354.972 235.208C355.461 235.634 355.738 236.223 355.801 236.975H354.143C354.116 236.694 354.008 236.445 353.817 236.228C353.627 236.001 353.373 235.847 353.056 235.766V238.701C353.663 238.846 354.157 239 354.537 239.163C354.918 239.317 355.24 239.566 355.502 239.91C355.765 240.245 355.896 240.712 355.896 241.31ZM350.896 237.097C350.896 237.469 351.005 237.759 351.222 237.967C351.448 238.175 351.766 238.343 352.173 238.47V235.725C351.784 235.77 351.471 235.911 351.236 236.146C351.009 236.382 350.896 236.699 350.896 237.097ZM353.056 242.804C353.455 242.741 353.767 242.582 353.994 242.329C354.22 242.066 354.334 241.753 354.334 241.391C354.334 241.029 354.22 240.748 353.994 240.549C353.777 240.34 353.464 240.173 353.056 240.046V242.804ZM363.756 236.391C363.656 235.974 363.475 235.661 363.212 235.453C362.949 235.245 362.582 235.141 362.111 235.141C361.396 235.141 360.861 235.417 360.508 235.969C360.155 236.513 359.969 237.419 359.951 238.687C360.186 238.288 360.531 237.98 360.984 237.763C361.437 237.546 361.926 237.437 362.451 237.437C363.049 237.437 363.574 237.568 364.027 237.831C364.489 238.085 364.847 238.456 365.101 238.945C365.363 239.434 365.495 240.019 365.495 240.698C365.495 241.332 365.368 241.898 365.114 242.397C364.87 242.895 364.503 243.289 364.014 243.579C363.525 243.86 362.936 244 362.247 244C361.314 244 360.58 243.796 360.046 243.389C359.521 242.972 359.149 242.388 358.932 241.636C358.723 240.884 358.619 239.946 358.619 238.823C358.619 235.507 359.788 233.85 362.125 233.85C363.031 233.85 363.742 234.094 364.258 234.583C364.784 235.073 365.092 235.675 365.182 236.391H363.756ZM362.111 238.741C361.559 238.741 361.088 238.909 360.698 239.244C360.318 239.57 360.128 240.046 360.128 240.671C360.128 241.296 360.304 241.794 360.657 242.166C361.02 242.528 361.523 242.709 362.166 242.709C362.736 242.709 363.185 242.532 363.511 242.179C363.846 241.826 364.014 241.355 364.014 240.766C364.014 240.15 363.851 239.661 363.525 239.299C363.207 238.927 362.736 238.741 362.111 238.741ZM367.419 238.918C367.419 237.351 367.682 236.128 368.207 235.249C368.741 234.362 369.656 233.918 370.952 233.918C372.247 233.918 373.158 234.362 373.683 235.249C374.217 236.128 374.485 237.351 374.485 238.918C374.485 240.503 374.217 241.744 373.683 242.641C373.158 243.529 372.247 243.973 370.952 243.973C369.656 243.973 368.741 243.529 368.207 242.641C367.682 241.744 367.419 240.503 367.419 238.918ZM372.963 238.918C372.963 238.184 372.913 237.564 372.813 237.056C372.723 236.549 372.533 236.137 372.243 235.82C371.953 235.494 371.523 235.331 370.952 235.331C370.381 235.331 369.951 235.494 369.661 235.82C369.371 236.137 369.176 236.549 369.077 237.056C368.986 237.564 368.941 238.184 368.941 238.918C368.941 239.679 368.986 240.318 369.077 240.834C369.167 241.35 369.357 241.767 369.647 242.084C369.946 242.401 370.381 242.56 370.952 242.56C371.523 242.56 371.953 242.401 372.243 242.084C372.542 241.767 372.736 241.35 372.827 240.834C372.918 240.318 372.963 239.679 372.963 238.918ZM376.396 238.918C376.396 237.351 376.658 236.128 377.184 235.249C377.718 234.362 378.633 233.918 379.928 233.918C381.224 233.918 382.134 234.362 382.66 235.249C383.194 236.128 383.461 237.351 383.461 238.918C383.461 240.503 383.194 241.744 382.66 242.641C382.134 243.529 381.224 243.973 379.928 243.973C378.633 243.973 377.718 243.529 377.184 242.641C376.658 241.744 376.396 240.503 376.396 238.918ZM381.94 238.918C381.94 238.184 381.89 237.564 381.79 237.056C381.699 236.549 381.509 236.137 381.219 235.82C380.929 235.494 380.499 235.331 379.928 235.331C379.358 235.331 378.927 235.494 378.638 235.82C378.348 236.137 378.153 236.549 378.053 237.056C377.963 237.564 377.917 238.184 377.917 238.918C377.917 239.679 377.963 240.318 378.053 240.834C378.144 241.35 378.334 241.767 378.624 242.084C378.923 242.401 379.358 242.56 379.928 242.56C380.499 242.56 380.929 242.401 381.219 242.084C381.518 241.767 381.713 241.35 381.804 240.834C381.894 240.318 381.94 239.679 381.94 238.918Z" fill="black"/>
<line x1="94" y1="259.575" x2="422" y2="259.575" stroke="#D5D5D5" stroke-width="0.849257"/>
<path d="M108.079 276.834V278.195H103.764V281.193H107.129V282.553H103.764V287H102.097V276.834H108.079ZM110.766 277.873C110.463 277.873 110.21 277.77 110.005 277.566C109.8 277.361 109.698 277.107 109.698 276.805C109.698 276.503 109.8 276.249 110.005 276.044C110.21 275.84 110.463 275.737 110.766 275.737C111.058 275.737 111.307 275.84 111.512 276.044C111.716 276.249 111.819 276.503 111.819 276.805C111.819 277.107 111.716 277.361 111.512 277.566C111.307 277.77 111.058 277.873 110.766 277.873ZM111.585 278.941V287H109.917V278.941H111.585ZM115.734 276.176V287H114.067V276.176H115.734ZM127.972 278.809C128.606 278.809 129.171 278.941 129.669 279.204C130.176 279.467 130.571 279.857 130.854 280.374C131.146 280.891 131.292 281.515 131.292 282.246V287H129.639V282.495C129.639 281.773 129.459 281.222 129.098 280.842C128.737 280.452 128.245 280.257 127.621 280.257C126.997 280.257 126.5 280.452 126.129 280.842C125.768 281.222 125.588 281.773 125.588 282.495V287H123.935V282.495C123.935 281.773 123.755 281.222 123.394 280.842C123.033 280.452 122.541 280.257 121.916 280.257C121.292 280.257 120.795 280.452 120.424 280.842C120.064 281.222 119.883 281.773 119.883 282.495V287H118.216V278.941H119.883V279.862C120.156 279.531 120.502 279.272 120.922 279.087C121.341 278.902 121.79 278.809 122.267 278.809C122.911 278.809 123.486 278.945 123.993 279.218C124.501 279.491 124.891 279.886 125.164 280.403C125.407 279.916 125.788 279.531 126.305 279.248C126.821 278.955 127.377 278.809 127.972 278.809ZM136.632 287.132C135.998 287.132 135.428 287.02 134.921 286.795C134.423 286.561 134.028 286.249 133.736 285.859C133.443 285.459 133.287 285.016 133.268 284.528H134.994C135.023 284.869 135.184 285.157 135.477 285.391C135.779 285.615 136.154 285.727 136.603 285.727C137.071 285.727 137.432 285.64 137.685 285.464C137.948 285.279 138.08 285.045 138.08 284.762C138.08 284.46 137.934 284.236 137.641 284.089C137.359 283.943 136.905 283.782 136.281 283.607C135.676 283.441 135.184 283.28 134.804 283.124C134.423 282.968 134.092 282.729 133.809 282.407C133.536 282.085 133.4 281.661 133.4 281.135C133.4 280.706 133.526 280.315 133.78 279.964C134.033 279.604 134.394 279.321 134.862 279.116C135.34 278.911 135.886 278.809 136.5 278.809C137.417 278.809 138.153 279.043 138.709 279.511C139.275 279.969 139.577 280.598 139.616 281.398H137.948C137.919 281.037 137.773 280.749 137.51 280.535C137.246 280.32 136.89 280.213 136.442 280.213C136.003 280.213 135.667 280.296 135.433 280.462C135.199 280.628 135.082 280.847 135.082 281.12C135.082 281.334 135.16 281.515 135.316 281.661C135.472 281.807 135.662 281.924 135.886 282.012C136.11 282.09 136.442 282.193 136.881 282.319C137.466 282.475 137.944 282.636 138.314 282.802C138.694 282.958 139.021 283.192 139.294 283.504C139.567 283.816 139.709 284.231 139.718 284.747C139.718 285.206 139.592 285.615 139.338 285.976C139.085 286.337 138.724 286.62 138.256 286.824C137.797 287.029 137.256 287.132 136.632 287.132ZM145.349 282.934C145.349 282.124 145.515 281.408 145.846 280.784C146.188 280.159 146.646 279.677 147.221 279.335C147.806 278.984 148.45 278.809 149.152 278.809C149.786 278.809 150.337 278.936 150.805 279.189C151.283 279.433 151.663 279.74 151.946 280.111V278.941H153.628V287H151.946V285.801C151.663 286.181 151.278 286.498 150.79 286.751C150.303 287.005 149.747 287.132 149.123 287.132C148.43 287.132 147.797 286.956 147.221 286.605C146.646 286.244 146.188 285.747 145.846 285.113C145.515 284.47 145.349 283.743 145.349 282.934ZM151.946 282.963C151.946 282.407 151.829 281.924 151.595 281.515C151.37 281.105 151.073 280.793 150.702 280.579C150.332 280.364 149.932 280.257 149.503 280.257C149.074 280.257 148.674 280.364 148.304 280.579C147.933 280.784 147.631 281.091 147.397 281.5C147.172 281.9 147.06 282.378 147.06 282.934C147.06 283.49 147.172 283.977 147.397 284.396C147.631 284.816 147.933 285.138 148.304 285.362C148.684 285.576 149.084 285.684 149.503 285.684C149.932 285.684 150.332 285.576 150.702 285.362C151.073 285.147 151.37 284.835 151.595 284.426C151.829 284.006 151.946 283.519 151.946 282.963ZM160.177 278.809C160.811 278.809 161.376 278.941 161.874 279.204C162.381 279.467 162.776 279.857 163.058 280.374C163.341 280.891 163.482 281.515 163.482 282.246V287H161.83V282.495C161.83 281.773 161.649 281.222 161.288 280.842C160.928 280.452 160.435 280.257 159.811 280.257C159.187 280.257 158.69 280.452 158.319 280.842C157.958 281.222 157.778 281.773 157.778 282.495V287H156.11V278.941H157.778V279.862C158.051 279.531 158.397 279.272 158.816 279.087C159.246 278.902 159.699 278.809 160.177 278.809ZM165.346 282.934C165.346 282.124 165.512 281.408 165.843 280.784C166.185 280.159 166.643 279.677 167.218 279.335C167.803 278.984 168.452 278.809 169.164 278.809C169.69 278.809 170.207 278.926 170.714 279.16C171.231 279.384 171.641 279.687 171.943 280.067V276.176H173.625V287H171.943V285.786C171.67 286.176 171.29 286.498 170.802 286.751C170.324 287.005 169.773 287.132 169.149 287.132C168.447 287.132 167.803 286.956 167.218 286.605C166.643 286.244 166.185 285.747 165.843 285.113C165.512 284.47 165.346 283.743 165.346 282.934ZM171.943 282.963C171.943 282.407 171.826 281.924 171.592 281.515C171.368 281.105 171.07 280.793 170.7 280.579C170.329 280.364 169.929 280.257 169.5 280.257C169.071 280.257 168.671 280.364 168.301 280.579C167.93 280.784 167.628 281.091 167.394 281.5C167.17 281.9 167.058 282.378 167.058 282.934C167.058 283.49 167.17 283.977 167.394 284.396C167.628 284.816 167.93 285.138 168.301 285.362C168.681 285.576 169.081 285.684 169.5 285.684C169.929 285.684 170.329 285.576 170.7 285.362C171.07 285.147 171.368 284.835 171.592 284.426C171.826 284.006 171.943 283.519 171.943 282.963ZM181.867 280.125C182.15 279.755 182.535 279.443 183.023 279.189C183.51 278.936 184.061 278.809 184.676 278.809C185.378 278.809 186.016 278.984 186.592 279.335C187.177 279.677 187.635 280.159 187.967 280.784C188.298 281.408 188.464 282.124 188.464 282.934C188.464 283.743 188.298 284.47 187.967 285.113C187.635 285.747 187.177 286.244 186.592 286.605C186.016 286.956 185.378 287.132 184.676 287.132C184.061 287.132 183.515 287.01 183.037 286.766C182.56 286.512 182.17 286.2 181.867 285.83V290.832H180.2V278.941H181.867V280.125ZM186.767 282.934C186.767 282.378 186.65 281.9 186.416 281.5C186.192 281.091 185.89 280.784 185.509 280.579C185.139 280.364 184.739 280.257 184.31 280.257C183.891 280.257 183.491 280.364 183.111 280.579C182.74 280.793 182.438 281.105 182.204 281.515C181.979 281.924 181.867 282.407 181.867 282.963C181.867 283.519 181.979 284.006 182.204 284.426C182.438 284.835 182.74 285.147 183.111 285.362C183.491 285.576 183.891 285.684 184.31 285.684C184.739 285.684 185.139 285.576 185.509 285.362C185.89 285.138 186.192 284.816 186.416 284.396C186.65 283.977 186.767 283.49 186.767 282.934ZM197.792 282.773C197.792 283.075 197.773 283.348 197.734 283.592H191.576C191.624 284.236 191.863 284.752 192.292 285.142C192.721 285.532 193.248 285.727 193.872 285.727C194.769 285.727 195.403 285.352 195.774 284.601H197.573C197.329 285.342 196.885 285.952 196.242 286.43C195.608 286.898 194.818 287.132 193.872 287.132C193.102 287.132 192.409 286.961 191.795 286.62C191.191 286.269 190.713 285.781 190.362 285.157C190.02 284.523 189.85 283.792 189.85 282.963C189.85 282.134 190.016 281.408 190.347 280.784C190.688 280.15 191.161 279.662 191.766 279.321C192.38 278.98 193.082 278.809 193.872 278.809C194.633 278.809 195.31 278.975 195.905 279.306C196.5 279.638 196.963 280.106 197.295 280.71C197.626 281.305 197.792 281.993 197.792 282.773ZM196.052 282.246C196.042 281.632 195.822 281.139 195.393 280.769C194.964 280.398 194.433 280.213 193.799 280.213C193.224 280.213 192.731 280.398 192.322 280.769C191.912 281.13 191.668 281.622 191.59 282.246H196.052ZM201.393 280.111C201.637 279.701 201.959 279.384 202.359 279.16C202.768 278.926 203.251 278.809 203.807 278.809V280.535H203.382C202.729 280.535 202.232 280.701 201.89 281.032C201.559 281.364 201.393 281.939 201.393 282.758V287H199.726V278.941H201.393V280.111ZM215.388 278.809C216.022 278.809 216.587 278.941 217.085 279.204C217.592 279.467 217.987 279.857 218.27 280.374C218.562 280.891 218.708 281.515 218.708 282.246V287H217.056V282.495C217.056 281.773 216.875 281.222 216.514 280.842C216.154 280.452 215.661 280.257 215.037 280.257C214.413 280.257 213.916 280.452 213.545 280.842C213.184 281.222 213.004 281.773 213.004 282.495V287H211.351V282.495C211.351 281.773 211.171 281.222 210.81 280.842C210.449 280.452 209.957 280.257 209.333 280.257C208.708 280.257 208.211 280.452 207.841 280.842C207.48 281.222 207.299 281.773 207.299 282.495V287H205.632V278.941H207.299V279.862C207.572 279.531 207.919 279.272 208.338 279.087C208.757 278.902 209.206 278.809 209.684 278.809C210.327 278.809 210.902 278.945 211.41 279.218C211.917 279.491 212.307 279.886 212.58 280.403C212.823 279.916 213.204 279.531 213.721 279.248C214.237 278.955 214.793 278.809 215.388 278.809ZM221.971 277.873C221.669 277.873 221.415 277.77 221.211 277.566C221.006 277.361 220.903 277.107 220.903 276.805C220.903 276.503 221.006 276.249 221.211 276.044C221.415 275.84 221.669 275.737 221.971 275.737C222.264 275.737 222.512 275.84 222.717 276.044C222.922 276.249 223.024 276.503 223.024 276.805C223.024 277.107 222.922 277.361 222.717 277.566C222.512 277.77 222.264 277.873 221.971 277.873ZM222.79 278.941V287H221.123V278.941H222.79ZM227.217 280.301V284.762C227.217 285.064 227.286 285.284 227.422 285.42C227.568 285.547 227.812 285.61 228.154 285.61H229.177V287H227.861C227.11 287 226.535 286.824 226.135 286.473C225.735 286.122 225.535 285.552 225.535 284.762V280.301H224.585V278.941H225.535V276.937H227.217V278.941H229.177V280.301H227.217Z" fill="black"/>
<path d="M351.403 284.31C351.403 284.762 351.29 285.188 351.063 285.587C350.846 285.985 350.52 286.321 350.085 286.592C349.659 286.864 349.152 287.027 348.563 287.082V288.182H347.68V287.082C346.828 287 346.14 286.733 345.614 286.28C345.089 285.827 344.826 285.229 344.826 284.486H346.484C346.511 284.839 346.624 285.134 346.824 285.369C347.023 285.596 347.308 285.741 347.68 285.804V282.815C347.073 282.661 346.579 282.507 346.199 282.353C345.818 282.19 345.492 281.936 345.22 281.592C344.958 281.248 344.826 280.777 344.826 280.179C344.826 279.427 345.089 278.806 345.614 278.317C346.14 277.819 346.828 277.529 347.68 277.448V276.347H348.563V277.448C349.36 277.52 349.999 277.774 350.479 278.208C350.968 278.634 351.244 279.223 351.308 279.975H349.65C349.623 279.694 349.514 279.445 349.324 279.228C349.134 279.001 348.88 278.847 348.563 278.766V281.701C349.17 281.846 349.664 282 350.044 282.163C350.425 282.317 350.746 282.566 351.009 282.91C351.272 283.245 351.403 283.712 351.403 284.31ZM346.402 280.097C346.402 280.469 346.511 280.759 346.729 280.967C346.955 281.175 347.272 281.343 347.68 281.47V278.725C347.29 278.77 346.978 278.911 346.742 279.146C346.516 279.382 346.402 279.699 346.402 280.097ZM348.563 285.804C348.962 285.741 349.274 285.582 349.501 285.329C349.727 285.066 349.84 284.753 349.84 284.391C349.84 284.029 349.727 283.748 349.501 283.549C349.283 283.34 348.971 283.173 348.563 283.046V285.804ZM353.732 278.507V277.094H356.558V287H354.995V278.507H353.732ZM358.958 281.918C358.958 280.351 359.221 279.128 359.746 278.249C360.28 277.362 361.195 276.918 362.491 276.918C363.786 276.918 364.697 277.362 365.222 278.249C365.756 279.128 366.024 280.351 366.024 281.918C366.024 283.503 365.756 284.744 365.222 285.641C364.697 286.529 363.786 286.973 362.491 286.973C361.195 286.973 360.28 286.529 359.746 285.641C359.221 284.744 358.958 283.503 358.958 281.918ZM364.502 281.918C364.502 281.184 364.452 280.564 364.352 280.056C364.262 279.549 364.072 279.137 363.782 278.82C363.492 278.494 363.062 278.331 362.491 278.331C361.92 278.331 361.49 278.494 361.2 278.82C360.91 279.137 360.715 279.549 360.616 280.056C360.525 280.564 360.48 281.184 360.48 281.918C360.48 282.679 360.525 283.318 360.616 283.834C360.706 284.35 360.896 284.767 361.186 285.084C361.485 285.401 361.92 285.56 362.491 285.56C363.062 285.56 363.492 285.401 363.782 285.084C364.081 284.767 364.275 284.35 364.366 283.834C364.457 283.318 364.502 282.679 364.502 281.918ZM367.935 281.918C367.935 280.351 368.197 279.128 368.723 278.249C369.257 277.362 370.172 276.918 371.467 276.918C372.763 276.918 373.673 277.362 374.199 278.249C374.733 279.128 375 280.351 375 281.918C375 283.503 374.733 284.744 374.199 285.641C373.673 286.529 372.763 286.973 371.467 286.973C370.172 286.973 369.257 286.529 368.723 285.641C368.197 284.744 367.935 283.503 367.935 281.918ZM373.478 281.918C373.478 281.184 373.429 280.564 373.329 280.056C373.238 279.549 373.048 279.137 372.758 278.82C372.468 278.494 372.038 278.331 371.467 278.331C370.897 278.331 370.466 278.494 370.177 278.82C369.887 279.137 369.692 279.549 369.592 280.056C369.502 280.564 369.456 281.184 369.456 281.918C369.456 282.679 369.502 283.318 369.592 283.834C369.683 284.35 369.873 284.767 370.163 285.084C370.462 285.401 370.897 285.56 371.467 285.56C372.038 285.56 372.468 285.401 372.758 285.084C373.057 284.767 373.252 284.35 373.343 283.834C373.433 283.318 373.478 282.679 373.478 281.918ZM376.911 281.918C376.911 280.351 377.174 279.128 377.699 278.249C378.234 277.362 379.149 276.918 380.444 276.918C381.739 276.918 382.65 277.362 383.175 278.249C383.71 279.128 383.977 280.351 383.977 281.918C383.977 283.503 383.71 284.744 383.175 285.641C382.65 286.529 381.739 286.973 380.444 286.973C379.149 286.973 378.234 286.529 377.699 285.641C377.174 284.744 376.911 283.503 376.911 281.918ZM382.455 281.918C382.455 281.184 382.405 280.564 382.306 280.056C382.215 279.549 382.025 279.137 381.735 278.82C381.445 278.494 381.015 278.331 380.444 278.331C379.873 278.331 379.443 278.494 379.153 278.82C378.863 279.137 378.669 279.549 378.569 280.056C378.478 280.564 378.433 281.184 378.433 281.918C378.433 282.679 378.478 283.318 378.569 283.834C378.66 284.35 378.85 284.767 379.14 285.084C379.439 285.401 379.873 285.56 380.444 285.56C381.015 285.56 381.445 285.401 381.735 285.084C382.034 284.767 382.229 284.35 382.319 283.834C382.41 283.318 382.455 282.679 382.455 281.918Z" fill="black"/>
<g filter="url(#filter1_d_6680_105799)">
<rect x="34" y="72" width="288.747" height="66.242" rx="10.1911" fill="#22CB67" shape-rendering="crispEdges"/>
<path d="M50.7008 106.821C50.7008 100.683 50.7008 97.6135 52.6078 95.7064C54.5148 93.7994 57.5841 93.7994 63.7227 93.7994M50.7008 106.821C50.7008 112.96 50.7008 116.029 52.6078 117.936C54.5148 119.843 57.5841 119.843 63.7227 119.843M50.7008 106.821H47.4453M63.7227 93.7994C69.8613 93.7994 72.9307 93.7994 74.8376 95.7064C76.7447 97.6135 76.7447 100.683 76.7447 106.821M63.7227 93.7994V90.5439M76.7447 106.821C76.7447 112.96 76.7447 116.029 74.8376 117.936C72.9307 119.843 69.8613 119.843 63.7227 119.843M76.7447 106.821H80.0002M63.7227 119.843V123.099M56.3979 111.705L59.396 102.71C59.5497 102.249 59.9812 101.938 60.4673 101.938C60.9533 101.938 61.3848 102.249 61.5385 102.71L64.5366 111.705M58.0256 108.449H62.9089M69.4198 101.938V111.705M57.2118 90.5439V93.7994M70.2337 90.5439V93.7994M57.2118 119.843V123.099M70.2337 119.843V123.099M80.0002 113.332H76.7447M50.7008 100.31H47.4453M50.7008 113.332H47.4453M80.0002 100.31H76.7447" stroke="white" stroke-width="2.44161" stroke-linecap="round" stroke-linejoin="round"/>
<path d="M102.918 96.5016C103.425 96.5922 103.855 96.8594 104.209 97.3033C104.562 97.7472 104.738 98.2499 104.738 98.8116C104.738 99.2917 104.612 99.7265 104.358 100.116C104.113 100.496 103.756 100.8 103.285 101.026C102.813 101.244 102.265 101.353 101.64 101.353H97.8629V91.9088H101.464C102.107 91.9088 102.659 92.0175 103.121 92.2349C103.583 92.4523 103.932 92.7467 104.168 93.1181C104.403 93.4805 104.521 93.8881 104.521 94.3411C104.521 94.8846 104.376 95.3375 104.086 95.6999C103.796 96.0622 103.407 96.3295 102.918 96.5016ZM99.4119 95.8765H101.328C101.835 95.8765 102.229 95.7633 102.51 95.5368C102.8 95.3013 102.945 94.9661 102.945 94.5313C102.945 94.1055 102.8 93.7749 102.51 93.5394C102.229 93.2948 101.835 93.1725 101.328 93.1725H99.4119V95.8765ZM101.504 100.089C102.03 100.089 102.442 99.962 102.741 99.7084C103.04 99.4547 103.189 99.1014 103.189 98.6485C103.189 98.1865 103.031 97.8196 102.714 97.5479C102.397 97.2761 101.976 97.1402 101.45 97.1402H99.4119V100.089H101.504ZM113.746 93.8655V101.353H112.197V100.469C111.952 100.777 111.631 101.022 111.232 101.203C110.842 101.375 110.426 101.461 109.982 101.461C109.393 101.461 108.863 101.339 108.392 101.094C107.93 100.85 107.563 100.487 107.291 100.007C107.029 99.5272 106.897 98.9474 106.897 98.268V93.8655H108.433V98.037C108.433 98.7074 108.6 99.2237 108.936 99.5861C109.271 99.9394 109.728 100.116 110.308 100.116C110.888 100.116 111.345 99.9394 111.68 99.5861C112.025 99.2237 112.197 98.7074 112.197 98.037V93.8655H113.746ZM115.817 97.575C115.817 96.8232 115.971 96.1574 116.279 95.5776C116.596 94.9978 117.022 94.5494 117.556 94.2324C118.1 93.9063 118.702 93.7432 119.363 93.7432C119.852 93.7432 120.333 93.8519 120.804 94.0693C121.284 94.2777 121.664 94.5585 121.945 94.9118V91.2973H123.508V101.353H121.945V100.225C121.691 100.587 121.338 100.886 120.885 101.122C120.441 101.357 119.929 101.475 119.35 101.475C118.697 101.475 118.1 101.312 117.556 100.986C117.022 100.65 116.596 100.188 116.279 99.5997C115.971 99.0018 115.817 98.3269 115.817 97.575ZM121.945 97.6022C121.945 97.0859 121.836 96.6375 121.619 96.257C121.411 95.8765 121.134 95.5867 120.79 95.3874C120.446 95.1881 120.074 95.0884 119.676 95.0884C119.277 95.0884 118.906 95.1881 118.562 95.3874C118.217 95.5776 117.937 95.8629 117.719 96.2434C117.511 96.6148 117.407 97.0587 117.407 97.575C117.407 98.0914 117.511 98.5443 117.719 98.9339C117.937 99.3234 118.217 99.6223 118.562 99.8307C118.915 100.03 119.286 100.13 119.676 100.13C120.074 100.13 120.446 100.03 120.79 99.8307C121.134 99.6314 121.411 99.3415 121.619 98.961C121.836 98.5715 121.945 98.1186 121.945 97.6022ZM129.102 93.7432C129.682 93.7432 130.194 93.861 130.638 94.0965C131.091 94.323 131.444 94.6083 131.698 94.9525V93.8655H133.26V101.475C133.26 102.163 133.115 102.775 132.825 103.309C132.536 103.853 132.114 104.279 131.562 104.587C131.018 104.895 130.366 105.049 129.605 105.049C128.591 105.049 127.748 104.808 127.078 104.328C126.407 103.857 126.027 103.214 125.936 102.399H127.472C127.59 102.788 127.839 103.101 128.219 103.336C128.609 103.581 129.071 103.703 129.605 103.703C130.23 103.703 130.733 103.513 131.113 103.133C131.503 102.752 131.698 102.2 131.698 101.475V100.225C131.435 100.578 131.077 100.877 130.624 101.122C130.18 101.357 129.673 101.475 129.102 101.475C128.45 101.475 127.852 101.312 127.309 100.986C126.774 100.65 126.348 100.188 126.031 99.5997C125.723 99.0018 125.569 98.3269 125.569 97.575C125.569 96.8232 125.723 96.1574 126.031 95.5776C126.348 94.9978 126.774 94.5494 127.309 94.2324C127.852 93.9063 128.45 93.7432 129.102 93.7432ZM131.698 97.6022C131.698 97.0859 131.589 96.6375 131.372 96.257C131.163 95.8765 130.887 95.5867 130.543 95.3874C130.198 95.1881 129.827 95.0884 129.428 95.0884C129.03 95.0884 128.658 95.1881 128.314 95.3874C127.97 95.5776 127.689 95.8629 127.472 96.2434C127.263 96.6148 127.159 97.0587 127.159 97.575C127.159 98.0914 127.263 98.5443 127.472 98.9339C127.689 99.3234 127.97 99.6223 128.314 99.8307C128.668 100.03 129.039 100.13 129.428 100.13C129.827 100.13 130.198 100.03 130.543 99.8307C130.887 99.6314 131.163 99.3415 131.372 98.961C131.589 98.5715 131.698 98.1186 131.698 97.6022ZM142.7 97.4256C142.7 97.7064 142.682 97.96 142.646 98.1865H136.925C136.971 98.7844 137.193 99.2645 137.591 99.6268C137.99 99.9892 138.479 100.17 139.059 100.17C139.892 100.17 140.481 99.8216 140.825 99.1241H142.497C142.27 99.8126 141.858 100.379 141.26 100.823C140.671 101.257 139.938 101.475 139.059 101.475C138.343 101.475 137.7 101.316 137.129 100.999C136.568 100.673 136.124 100.22 135.798 99.6404C135.481 99.0516 135.322 98.3722 135.322 97.6022C135.322 96.8322 135.476 96.1574 135.784 95.5776C136.101 94.9888 136.54 94.5358 137.102 94.2188C137.673 93.9017 138.325 93.7432 139.059 93.7432C139.765 93.7432 140.395 93.8972 140.948 94.2052C141.5 94.5132 141.93 94.948 142.238 95.5097C142.546 96.0622 142.7 96.7009 142.7 97.4256ZM141.083 96.9364C141.074 96.3657 140.871 95.9082 140.472 95.564C140.073 95.2198 139.58 95.0477 138.991 95.0477C138.456 95.0477 137.999 95.2198 137.618 95.564C137.238 95.8992 137.012 96.3566 136.939 96.9364H141.083ZM146.576 95.1292V99.2736C146.576 99.5544 146.639 99.7582 146.766 99.885C146.902 100.003 147.128 100.062 147.445 100.062H148.396V101.353H147.173C146.476 101.353 145.941 101.189 145.57 100.863C145.199 100.537 145.013 100.007 145.013 99.2736V95.1292H144.13V93.8655H145.013V92.0039H146.576V93.8655H148.396V95.1292H146.576ZM160.134 99.423H156.18L155.501 101.353H153.884L157.267 91.8952H159.061L162.444 101.353H160.814L160.134 99.423ZM159.699 98.1593L158.164 93.7704L156.615 98.1593H159.699ZM167.177 101.475C166.588 101.475 166.058 101.371 165.587 101.162C165.125 100.945 164.758 100.655 164.486 100.293C164.214 99.9213 164.069 99.5091 164.051 99.0561H165.655C165.682 99.3732 165.831 99.6404 166.103 99.8578C166.384 100.066 166.733 100.17 167.149 100.17C167.584 100.17 167.919 100.089 168.155 99.9258C168.399 99.7537 168.522 99.5363 168.522 99.2736C168.522 98.9927 168.386 98.7844 168.114 98.6485C167.851 98.5126 167.43 98.3632 166.85 98.2001C166.289 98.0461 165.831 97.8966 165.478 97.7517C165.125 97.6067 164.817 97.3848 164.554 97.0859C164.3 96.7869 164.174 96.3929 164.174 95.9037C164.174 95.5051 164.291 95.1428 164.527 94.8167C164.762 94.4815 165.098 94.2188 165.532 94.0285C165.976 93.8383 166.484 93.7432 167.054 93.7432C167.906 93.7432 168.59 93.9606 169.106 94.3954C169.631 94.8212 169.912 95.4055 169.949 96.1483H168.399C168.372 95.8131 168.236 95.5459 167.992 95.3466C167.747 95.1473 167.417 95.0477 167 95.0477C166.592 95.0477 166.28 95.1247 166.062 95.2787C165.845 95.4327 165.736 95.6365 165.736 95.8901C165.736 96.0894 165.809 96.257 165.954 96.3929C166.099 96.5288 166.275 96.6375 166.484 96.719C166.692 96.7915 167 96.8866 167.408 97.0043C167.951 97.1493 168.395 97.2988 168.739 97.4528C169.092 97.5977 169.396 97.8151 169.65 98.105C169.903 98.3949 170.035 98.7799 170.044 99.26C170.044 99.6857 169.926 100.066 169.69 100.401C169.455 100.737 169.12 100.999 168.685 101.189C168.259 101.38 167.756 101.475 167.177 101.475ZM174.979 101.475C174.39 101.475 173.86 101.371 173.389 101.162C172.927 100.945 172.56 100.655 172.288 100.293C172.016 99.9213 171.871 99.5091 171.853 99.0561H173.457C173.484 99.3732 173.633 99.6404 173.905 99.8578C174.186 100.066 174.535 100.17 174.951 100.17C175.386 100.17 175.721 100.089 175.957 99.9258C176.201 99.7537 176.324 99.5363 176.324 99.2736C176.324 98.9927 176.188 98.7844 175.916 98.6485C175.653 98.5126 175.232 98.3632 174.652 98.2001C174.091 98.0461 173.633 97.8966 173.28 97.7517C172.927 97.6067 172.619 97.3848 172.356 97.0859C172.102 96.7869 171.976 96.3929 171.976 95.9037C171.976 95.5051 172.093 95.1428 172.329 94.8167C172.564 94.4815 172.9 94.2188 173.334 94.0285C173.778 93.8383 174.286 93.7432 174.856 93.7432C175.708 93.7432 176.392 93.9606 176.908 94.3954C177.433 94.8212 177.714 95.4055 177.751 96.1483H176.201C176.174 95.8131 176.038 95.5459 175.794 95.3466C175.549 95.1473 175.219 95.0477 174.802 95.0477C174.394 95.0477 174.082 95.1247 173.864 95.2787C173.647 95.4327 173.538 95.6365 173.538 95.8901C173.538 96.0894 173.611 96.257 173.756 96.3929C173.901 96.5288 174.077 96.6375 174.286 96.719C174.494 96.7915 174.802 96.8866 175.21 97.0043C175.753 97.1493 176.197 97.2988 176.541 97.4528C176.894 97.5977 177.198 97.8151 177.452 98.105C177.705 98.3949 177.837 98.7799 177.846 99.26C177.846 99.6857 177.728 100.066 177.492 100.401C177.257 100.737 176.922 100.999 176.487 101.189C176.061 101.38 175.558 101.475 174.979 101.475ZM186.925 97.4256C186.925 97.7064 186.907 97.96 186.871 98.1865H181.15C181.195 98.7844 181.417 99.2645 181.816 99.6268C182.214 99.9892 182.704 100.17 183.283 100.17C184.117 100.17 184.706 99.8216 185.05 99.1241H186.721C186.495 99.8126 186.082 100.379 185.485 100.823C184.896 101.257 184.162 101.475 183.283 101.475C182.568 101.475 181.925 101.316 181.354 100.999C180.792 100.673 180.348 100.22 180.022 99.6404C179.705 99.0516 179.547 98.3722 179.547 97.6022C179.547 96.8322 179.701 96.1574 180.009 95.5776C180.326 94.9888 180.765 94.5358 181.327 94.2188C181.897 93.9017 182.55 93.7432 183.283 93.7432C183.99 93.7432 184.62 93.8972 185.172 94.2052C185.725 94.5132 186.155 94.948 186.463 95.5097C186.771 96.0622 186.925 96.7009 186.925 97.4256ZM185.308 96.9364C185.299 96.3657 185.095 95.9082 184.697 95.564C184.298 95.2198 183.804 95.0477 183.215 95.0477C182.681 95.0477 182.223 95.2198 181.843 95.564C181.463 95.8992 181.236 96.3566 181.164 96.9364H185.308ZM191.711 101.475C191.122 101.475 190.592 101.371 190.121 101.162C189.659 100.945 189.292 100.655 189.02 100.293C188.748 99.9213 188.603 99.5091 188.585 99.0561H190.189C190.216 99.3732 190.365 99.6404 190.637 99.8578C190.918 100.066 191.267 100.17 191.683 100.17C192.118 100.17 192.453 100.089 192.689 99.9258C192.933 99.7537 193.056 99.5363 193.056 99.2736C193.056 98.9927 192.92 98.7844 192.648 98.6485C192.385 98.5126 191.964 98.3632 191.384 98.2001C190.823 98.0461 190.365 97.8966 190.012 97.7517C189.659 97.6067 189.351 97.3848 189.088 97.0859C188.834 96.7869 188.708 96.3929 188.708 95.9037C188.708 95.5051 188.825 95.1428 189.061 94.8167C189.296 94.4815 189.632 94.2188 190.066 94.0285C190.51 93.8383 191.018 93.7432 191.588 93.7432C192.44 93.7432 193.124 93.9606 193.64 94.3954C194.165 94.8212 194.446 95.4055 194.482 96.1483H192.933C192.906 95.8131 192.77 95.5459 192.526 95.3466C192.281 95.1473 191.951 95.0477 191.534 95.0477C191.126 95.0477 190.814 95.1247 190.596 95.2787C190.379 95.4327 190.27 95.6365 190.27 95.8901C190.27 96.0894 190.343 96.257 190.488 96.3929C190.633 96.5288 190.809 96.6375 191.018 96.719C191.226 96.7915 191.534 96.8866 191.942 97.0043C192.485 97.1493 192.929 97.2988 193.273 97.4528C193.626 97.5977 193.93 97.8151 194.184 98.105C194.437 98.3949 194.569 98.7799 194.578 99.26C194.578 99.6857 194.46 100.066 194.224 100.401C193.989 100.737 193.654 100.999 193.219 101.189C192.793 101.38 192.29 101.475 191.711 101.475ZM199.513 101.475C198.924 101.475 198.394 101.371 197.923 101.162C197.461 100.945 197.094 100.655 196.822 100.293C196.55 99.9213 196.405 99.5091 196.387 99.0561H197.991C198.018 99.3732 198.167 99.6404 198.439 99.8578C198.72 100.066 199.069 100.17 199.485 100.17C199.92 100.17 200.255 100.089 200.491 99.9258C200.735 99.7537 200.858 99.5363 200.858 99.2736C200.858 98.9927 200.722 98.7844 200.45 98.6485C200.187 98.5126 199.766 98.3632 199.186 98.2001C198.625 98.0461 198.167 97.8966 197.814 97.7517C197.461 97.6067 197.153 97.3848 196.89 97.0859C196.636 96.7869 196.51 96.3929 196.51 95.9037C196.51 95.5051 196.627 95.1428 196.863 94.8167C197.098 94.4815 197.434 94.2188 197.868 94.0285C198.312 93.8383 198.82 93.7432 199.39 93.7432C200.242 93.7432 200.926 93.9606 201.442 94.3954C201.967 94.8212 202.248 95.4055 202.285 96.1483H200.735C200.708 95.8131 200.572 95.5459 200.328 95.3466C200.083 95.1473 199.753 95.0477 199.336 95.0477C198.928 95.0477 198.616 95.1247 198.398 95.2787C198.181 95.4327 198.072 95.6365 198.072 95.8901C198.072 96.0894 198.145 96.257 198.29 96.3929C198.435 96.5288 198.611 96.6375 198.82 96.719C199.028 96.7915 199.336 96.8866 199.744 97.0043C200.287 97.1493 200.731 97.2988 201.075 97.4528C201.428 97.5977 201.732 97.8151 201.986 98.105C202.239 98.3949 202.371 98.7799 202.38 99.26C202.38 99.6857 202.262 100.066 202.026 100.401C201.791 100.737 201.456 100.999 201.021 101.189C200.595 101.38 200.092 101.475 199.513 101.475ZM213.66 93.7432C214.249 93.7432 214.774 93.8655 215.236 94.1101C215.707 94.3547 216.074 94.717 216.337 95.1971C216.609 95.6772 216.745 96.257 216.745 96.9364V101.353H215.209V97.1674C215.209 96.4971 215.042 95.9852 214.706 95.6319C214.371 95.2696 213.914 95.0884 213.334 95.0884C212.754 95.0884 212.292 95.2696 211.948 95.6319C211.613 95.9852 211.445 96.4971 211.445 97.1674V101.353H209.91V97.1674C209.91 96.4971 209.742 95.9852 209.407 95.6319C209.072 95.2696 208.614 95.0884 208.035 95.0884C207.455 95.0884 206.993 95.2696 206.649 95.6319C206.314 95.9852 206.146 96.4971 206.146 97.1674V101.353H204.597V93.8655H206.146V94.7215C206.4 94.4135 206.721 94.1735 207.111 94.0014C207.5 93.8293 207.917 93.7432 208.361 93.7432C208.959 93.7432 209.493 93.87 209.964 94.1237C210.435 94.3773 210.798 94.7442 211.051 95.2243C211.278 94.7714 211.631 94.4135 212.111 94.1508C212.591 93.8791 213.108 93.7432 213.66 93.7432ZM226.121 97.4256C226.121 97.7064 226.103 97.96 226.067 98.1865H220.346C220.392 98.7844 220.614 99.2645 221.012 99.6268C221.411 99.9892 221.9 100.17 222.48 100.17C223.313 100.17 223.902 99.8216 224.246 99.1241H225.918C225.691 99.8126 225.279 100.379 224.681 100.823C224.092 101.257 223.358 101.475 222.48 101.475C221.764 101.475 221.121 101.316 220.55 100.999C219.989 100.673 219.545 100.22 219.219 99.6404C218.902 99.0516 218.743 98.3722 218.743 97.6022C218.743 96.8322 218.897 96.1574 219.205 95.5776C219.522 94.9888 219.961 94.5358 220.523 94.2188C221.094 93.9017 221.746 93.7432 222.48 93.7432C223.186 93.7432 223.816 93.8972 224.368 94.2052C224.921 94.5132 225.351 94.948 225.659 95.5097C225.967 96.0622 226.121 96.7009 226.121 97.4256ZM224.504 96.9364C224.495 96.3657 224.291 95.9082 223.893 95.564C223.494 95.2198 223.001 95.0477 222.412 95.0477C221.877 95.0477 221.42 95.2198 221.039 95.564C220.659 95.8992 220.432 96.3566 220.36 96.9364H224.504ZM231.967 93.7432C232.556 93.7432 233.081 93.8655 233.543 94.1101C234.014 94.3547 234.381 94.717 234.644 95.1971C234.906 95.6772 235.038 96.257 235.038 96.9364V101.353H233.502V97.1674C233.502 96.4971 233.335 95.9852 232.999 95.6319C232.664 95.2696 232.207 95.0884 231.627 95.0884C231.047 95.0884 230.585 95.2696 230.241 95.6319C229.906 95.9852 229.738 96.4971 229.738 97.1674V101.353H228.189V93.8655H229.738V94.7215C229.992 94.4135 230.314 94.1735 230.703 94.0014C231.102 93.8293 231.523 93.7432 231.967 93.7432ZM239.364 95.1292V99.2736C239.364 99.5544 239.428 99.7582 239.555 99.885C239.69 100.003 239.917 100.062 240.234 100.062H241.185V101.353H239.962C239.265 101.353 238.73 101.189 238.359 100.863C237.987 100.537 237.802 100.007 237.802 99.2736V95.1292H236.918V93.8655H237.802V92.0039H239.364V93.8655H241.185V95.1292H239.364ZM252.787 91.9088V93.1725H248.779V95.9581H251.904V97.2218H248.779V101.353H247.23V91.9088H252.787ZM256.315 94.9525C256.542 94.5721 256.841 94.2777 257.212 94.0693C257.593 93.8519 258.041 93.7432 258.557 93.7432V95.3466H258.163C257.556 95.3466 257.094 95.5006 256.777 95.8086C256.469 96.1166 256.315 96.6511 256.315 97.412V101.353H254.766V93.8655H256.315V94.9525ZM263.772 101.475C263.066 101.475 262.427 101.316 261.856 100.999C261.286 100.673 260.837 100.22 260.511 99.6404C260.185 99.0516 260.022 98.3722 260.022 97.6022C260.022 96.8413 260.19 96.1664 260.525 95.5776C260.86 94.9888 261.317 94.5358 261.897 94.2188C262.477 93.9017 263.125 93.7432 263.84 93.7432C264.556 93.7432 265.204 93.9017 265.783 94.2188C266.363 94.5358 266.821 94.9888 267.156 95.5776C267.491 96.1664 267.658 96.8413 267.658 97.6022C267.658 98.3632 267.486 99.038 267.142 99.6268C266.798 100.216 266.327 100.673 265.729 100.999C265.14 101.316 264.488 101.475 263.772 101.475ZM263.772 100.13C264.171 100.13 264.542 100.034 264.887 99.8443C265.24 99.654 265.525 99.3687 265.743 98.9882C265.96 98.6077 266.069 98.1457 266.069 97.6022C266.069 97.0587 265.965 96.6012 265.756 96.2298C265.548 95.8494 265.272 95.564 264.927 95.3738C264.583 95.1835 264.212 95.0884 263.813 95.0884C263.414 95.0884 263.043 95.1835 262.699 95.3738C262.364 95.564 262.096 95.8494 261.897 96.2298C261.698 96.6012 261.598 97.0587 261.598 97.6022C261.598 98.4084 261.802 99.0335 262.21 99.4774C262.626 99.9122 263.147 100.13 263.772 100.13ZM278.797 93.7432C279.385 93.7432 279.911 93.8655 280.373 94.1101C280.844 94.3547 281.211 94.717 281.473 95.1971C281.745 95.6772 281.881 96.257 281.881 96.9364V101.353H280.346V97.1674C280.346 96.4971 280.178 95.9852 279.843 95.6319C279.508 95.2696 279.05 95.0884 278.47 95.0884C277.891 95.0884 277.429 95.2696 277.085 95.6319C276.749 95.9852 276.582 96.4971 276.582 97.1674V101.353H275.046V97.1674C275.046 96.4971 274.879 95.9852 274.544 95.6319C274.208 95.2696 273.751 95.0884 273.171 95.0884C272.591 95.0884 272.129 95.2696 271.785 95.6319C271.45 95.9852 271.282 96.4971 271.282 97.1674V101.353H269.733V93.8655H271.282V94.7215C271.536 94.4135 271.858 94.1735 272.247 94.0014C272.637 93.8293 273.053 93.7432 273.497 93.7432C274.095 93.7432 274.63 93.87 275.101 94.1237C275.572 94.3773 275.934 94.7442 276.188 95.2243C276.414 94.7714 276.767 94.4135 277.248 94.1508C277.728 93.8791 278.244 93.7432 278.797 93.7432ZM97.4552 112.86V111.447H100.282V121.353H98.7189V112.86H97.4552ZM109.34 112.778H104.787V115.482C104.978 115.229 105.259 115.016 105.63 114.844C106.01 114.672 106.414 114.586 106.839 114.586C107.6 114.586 108.216 114.749 108.687 115.075C109.167 115.401 109.507 115.813 109.706 116.311C109.915 116.81 110.019 117.335 110.019 117.888C110.019 118.558 109.888 119.156 109.625 119.681C109.371 120.198 108.986 120.605 108.47 120.904C107.963 121.203 107.338 121.353 106.595 121.353C105.607 121.353 104.815 121.108 104.217 120.619C103.619 120.13 103.261 119.482 103.143 118.676H104.652C104.751 119.101 104.973 119.441 105.317 119.695C105.662 119.939 106.092 120.062 106.608 120.062C107.251 120.062 107.732 119.867 108.049 119.477C108.375 119.088 108.538 118.572 108.538 117.928C108.538 117.276 108.375 116.778 108.049 116.434C107.723 116.08 107.242 115.904 106.608 115.904C106.164 115.904 105.788 116.017 105.48 116.243C105.182 116.461 104.964 116.76 104.828 117.14H103.361V111.42H109.34V112.778ZM119.537 111.909C120.542 111.909 121.421 112.104 122.173 112.493C122.934 112.874 123.518 113.426 123.925 114.151C124.342 114.866 124.551 115.704 124.551 116.665C124.551 117.625 124.342 118.458 123.925 119.165C123.518 119.871 122.934 120.415 122.173 120.795C121.421 121.167 120.542 121.353 119.537 121.353H116.452V111.909H119.537ZM119.537 120.089C120.642 120.089 121.489 119.79 122.078 119.192C122.666 118.594 122.961 117.752 122.961 116.665C122.961 115.569 122.666 114.712 122.078 114.096C121.489 113.48 120.642 113.172 119.537 113.172H118.001V120.089H119.537ZM126.113 117.575C126.113 116.823 126.267 116.157 126.575 115.578C126.892 114.998 127.318 114.549 127.852 114.232C128.396 113.906 128.994 113.743 129.646 113.743C130.235 113.743 130.747 113.861 131.181 114.096C131.625 114.323 131.978 114.608 132.241 114.953V113.865H133.804V121.353H132.241V120.238C131.978 120.592 131.621 120.886 131.168 121.122C130.715 121.357 130.198 121.475 129.619 121.475C128.976 121.475 128.387 121.312 127.852 120.986C127.318 120.65 126.892 120.188 126.575 119.6C126.267 119.002 126.113 118.327 126.113 117.575ZM132.241 117.602C132.241 117.086 132.132 116.637 131.915 116.257C131.707 115.877 131.43 115.587 131.086 115.387C130.742 115.188 130.371 115.088 129.972 115.088C129.573 115.088 129.202 115.188 128.858 115.387C128.514 115.578 128.233 115.863 128.015 116.243C127.807 116.615 127.703 117.059 127.703 117.575C127.703 118.091 127.807 118.544 128.015 118.934C128.233 119.323 128.514 119.622 128.858 119.831C129.211 120.03 129.582 120.13 129.972 120.13C130.371 120.13 130.742 120.03 131.086 119.831C131.43 119.631 131.707 119.341 131.915 118.961C132.132 118.572 132.241 118.119 132.241 117.602ZM143.122 113.865L138.529 124.872H136.925L138.447 121.23L135.499 113.865H137.224L139.331 119.572L141.518 113.865H143.122ZM147.552 121.475C146.963 121.475 146.433 121.371 145.962 121.162C145.5 120.945 145.133 120.655 144.861 120.293C144.59 119.921 144.445 119.509 144.427 119.056H146.03C146.057 119.373 146.207 119.64 146.478 119.858C146.759 120.066 147.108 120.17 147.525 120.17C147.959 120.17 148.295 120.089 148.53 119.926C148.775 119.754 148.897 119.536 148.897 119.274C148.897 118.993 148.761 118.784 148.489 118.649C148.227 118.513 147.805 118.363 147.226 118.2C146.664 118.046 146.207 117.897 145.853 117.752C145.5 117.607 145.192 117.385 144.929 117.086C144.676 116.787 144.549 116.393 144.549 115.904C144.549 115.505 144.667 115.143 144.902 114.817C145.138 114.481 145.473 114.219 145.908 114.029C146.352 113.838 146.859 113.743 147.43 113.743C148.281 113.743 148.965 113.961 149.481 114.395C150.007 114.821 150.288 115.405 150.324 116.148H148.775C148.748 115.813 148.612 115.546 148.367 115.347C148.123 115.147 147.792 115.048 147.375 115.048C146.968 115.048 146.655 115.125 146.438 115.279C146.22 115.433 146.111 115.636 146.111 115.89C146.111 116.089 146.184 116.257 146.329 116.393C146.474 116.529 146.65 116.637 146.859 116.719C147.067 116.791 147.375 116.887 147.783 117.004C148.326 117.149 148.77 117.299 149.114 117.453C149.468 117.598 149.771 117.815 150.025 118.105C150.278 118.395 150.41 118.78 150.419 119.26C150.419 119.686 150.301 120.066 150.066 120.401C149.83 120.737 149.495 120.999 149.06 121.189C148.634 121.38 148.132 121.475 147.552 121.475ZM162.811 111.909V113.172H160.297V121.353H158.748V113.172H156.22V111.909H162.811ZM168.17 121.475C167.464 121.475 166.825 121.316 166.254 120.999C165.684 120.673 165.235 120.22 164.909 119.64C164.583 119.052 164.42 118.372 164.42 117.602C164.42 116.841 164.588 116.166 164.923 115.578C165.258 114.989 165.715 114.536 166.295 114.219C166.875 113.902 167.523 113.743 168.238 113.743C168.954 113.743 169.602 113.902 170.181 114.219C170.761 114.536 171.219 114.989 171.554 115.578C171.889 116.166 172.057 116.841 172.057 117.602C172.057 118.363 171.884 119.038 171.54 119.627C171.196 120.216 170.725 120.673 170.127 120.999C169.538 121.316 168.886 121.475 168.17 121.475ZM168.17 120.13C168.569 120.13 168.94 120.034 169.285 119.844C169.638 119.654 169.923 119.369 170.141 118.988C170.358 118.608 170.467 118.146 170.467 117.602C170.467 117.059 170.363 116.601 170.154 116.23C169.946 115.849 169.67 115.564 169.325 115.374C168.981 115.184 168.61 115.088 168.211 115.088C167.813 115.088 167.441 115.184 167.097 115.374C166.762 115.564 166.495 115.849 166.295 116.23C166.096 116.601 165.996 117.059 165.996 117.602C165.996 118.408 166.2 119.034 166.608 119.477C167.024 119.912 167.545 120.13 168.17 120.13ZM177.797 112.86V111.447H180.623V121.353H179.061V112.86H177.797ZM189.681 112.778H185.129V115.482C185.32 115.229 185.6 115.016 185.972 114.844C186.352 114.672 186.755 114.586 187.181 114.586C187.942 114.586 188.558 114.749 189.029 115.075C189.509 115.401 189.849 115.813 190.048 116.311C190.257 116.81 190.361 117.335 190.361 117.888C190.361 118.558 190.229 119.156 189.967 119.681C189.713 120.198 189.328 120.605 188.812 120.904C188.304 121.203 187.679 121.353 186.937 121.353C185.949 121.353 185.156 121.108 184.559 120.619C183.961 120.13 183.603 119.482 183.485 118.676H184.993C185.093 119.101 185.315 119.441 185.659 119.695C186.003 119.939 186.434 120.062 186.95 120.062C187.593 120.062 188.073 119.867 188.39 119.477C188.717 119.088 188.88 118.572 188.88 117.928C188.88 117.276 188.717 116.778 188.39 116.434C188.064 116.08 187.584 115.904 186.95 115.904C186.506 115.904 186.13 116.017 185.822 116.243C185.523 116.461 185.306 116.76 185.17 117.14H183.703V111.42H189.681V112.778ZM206.74 111.909V121.353H205.191V114.885L202.311 121.353H201.237L198.343 114.885V121.353H196.794V111.909H198.465L201.781 119.314L205.083 111.909H206.74ZM210.108 112.874C209.827 112.874 209.592 112.778 209.401 112.588C209.211 112.398 209.116 112.162 209.116 111.882C209.116 111.601 209.211 111.365 209.401 111.175C209.592 110.985 209.827 110.89 210.108 110.89C210.38 110.89 210.611 110.985 210.801 111.175C210.991 111.365 211.086 111.601 211.086 111.882C211.086 112.162 210.991 112.398 210.801 112.588C210.611 112.778 210.38 112.874 210.108 112.874ZM210.869 113.865V121.353H209.32V113.865H210.869ZM217.224 113.743C217.812 113.743 218.338 113.865 218.8 114.11C219.271 114.355 219.638 114.717 219.901 115.197C220.163 115.677 220.295 116.257 220.295 116.936V121.353H218.759V117.167C218.759 116.497 218.592 115.985 218.256 115.632C217.921 115.27 217.464 115.088 216.884 115.088C216.304 115.088 215.842 115.27 215.498 115.632C215.163 115.985 214.995 116.497 214.995 117.167V121.353H213.446V113.865H214.995V114.722C215.249 114.414 215.57 114.173 215.96 114.001C216.359 113.829 216.78 113.743 217.224 113.743ZM229.594 113.865V121.353H228.045V120.469C227.801 120.777 227.479 121.022 227.081 121.203C226.691 121.375 226.274 121.461 225.831 121.461C225.242 121.461 224.712 121.339 224.241 121.094C223.779 120.85 223.412 120.487 223.14 120.007C222.877 119.527 222.746 118.947 222.746 118.268V113.865H224.282V118.037C224.282 118.707 224.449 119.224 224.784 119.586C225.119 119.939 225.577 120.116 226.157 120.116C226.736 120.116 227.194 119.939 227.529 119.586C227.873 119.224 228.045 118.707 228.045 118.037V113.865H229.594ZM233.989 115.129V119.274C233.989 119.554 234.052 119.758 234.179 119.885C234.315 120.003 234.542 120.062 234.859 120.062H235.81V121.353H234.587C233.889 121.353 233.355 121.189 232.984 120.863C232.612 120.537 232.426 120.007 232.426 119.274V115.129H231.543V113.865H232.426V112.004H233.989V113.865H235.81V115.129H233.989ZM244.643 117.426C244.643 117.706 244.625 117.96 244.589 118.187H238.868C238.913 118.784 239.135 119.264 239.534 119.627C239.933 119.989 240.422 120.17 241.001 120.17C241.835 120.17 242.424 119.822 242.768 119.124H244.439C244.213 119.813 243.801 120.379 243.203 120.823C242.614 121.257 241.88 121.475 241.001 121.475C240.286 121.475 239.643 121.316 239.072 120.999C238.51 120.673 238.066 120.22 237.74 119.64C237.423 119.052 237.265 118.372 237.265 117.602C237.265 116.832 237.419 116.157 237.727 115.578C238.044 114.989 238.483 114.536 239.045 114.219C239.616 113.902 240.268 113.743 241.001 113.743C241.708 113.743 242.338 113.897 242.89 114.205C243.443 114.513 243.873 114.948 244.181 115.51C244.489 116.062 244.643 116.701 244.643 117.426ZM243.026 116.936C243.017 116.366 242.813 115.908 242.415 115.564C242.016 115.22 241.522 115.048 240.934 115.048C240.399 115.048 239.942 115.22 239.561 115.564C239.181 115.899 238.954 116.357 238.882 116.936H243.026ZM249.429 121.475C248.84 121.475 248.31 121.371 247.839 121.162C247.377 120.945 247.01 120.655 246.738 120.293C246.466 119.921 246.322 119.509 246.303 119.056H247.907C247.934 119.373 248.083 119.64 248.355 119.858C248.636 120.066 248.985 120.17 249.401 120.17C249.836 120.17 250.171 120.089 250.407 119.926C250.652 119.754 250.774 119.536 250.774 119.274C250.774 118.993 250.638 118.784 250.366 118.649C250.104 118.513 249.682 118.363 249.103 118.2C248.541 118.046 248.083 117.897 247.73 117.752C247.377 117.607 247.069 117.385 246.806 117.086C246.553 116.787 246.426 116.393 246.426 115.904C246.426 115.505 246.543 115.143 246.779 114.817C247.015 114.481 247.35 114.219 247.785 114.029C248.228 113.838 248.736 113.743 249.306 113.743C250.158 113.743 250.842 113.961 251.358 114.395C251.884 114.821 252.164 115.405 252.201 116.148H250.652C250.624 115.813 250.489 115.546 250.244 115.347C249.999 115.147 249.669 115.048 249.252 115.048C248.844 115.048 248.532 115.125 248.314 115.279C248.097 115.433 247.988 115.636 247.988 115.89C247.988 116.089 248.061 116.257 248.206 116.393C248.351 116.529 248.527 116.637 248.736 116.719C248.944 116.791 249.252 116.887 249.66 117.004C250.203 117.149 250.647 117.299 250.991 117.453C251.345 117.598 251.648 117.815 251.902 118.105C252.155 118.395 252.287 118.78 252.296 119.26C252.296 119.686 252.178 120.066 251.942 120.401C251.707 120.737 251.372 120.999 250.937 121.189C250.511 121.38 250.008 121.475 249.429 121.475Z" fill="white"/>
</g>
</g>
<defs>
<filter id="filter0_d_6680_105799" x="0.9" y="0.9" width="488.2" height="581.2" filterUnits="userSpaceOnUse" color-interpolation-filters="sRGB">
<feFlood flood-opacity="0" result="BackgroundImageFix"/>
<feColorMatrix in="SourceAlpha" type="matrix" values="0 0 0 0 0 0 0 0 0 0 0 0 0 0 0 0 0 0 127 0" result="hardAlpha"/>
<feOffset dx="-2" dy="-5"/>
<feGaussianBlur stdDeviation="15.55"/>
<feComposite in2="hardAlpha" operator="out"/>
<feColorMatrix type="matrix" values="0 0 0 0 0.133333 0 0 0 0 0.796078 0 0 0 0 0.403922 0 0 0 0.25 0"/>
<feBlend mode="normal" in2="BackgroundImageFix" result="effect1_dropShadow_6680_105799"/>
<feBlend mode="normal" in="SourceGraphic" in2="effect1_dropShadow_6680_105799" result="shape"/>
</filter>
<filter id="filter1_d_6680_105799" x="23.724" y="61.724" width="309.298" height="86.7942" filterUnits="userSpaceOnUse" color-interpolation-filters="sRGB">
<feFlood flood-opacity="0" result="BackgroundImageFix"/>
<feColorMatrix in="SourceAlpha" type="matrix" values="0 0 0 0 0 0 0 0 0 0 0 0 0 0 0 0 0 0 127 0" result="hardAlpha"/>
<feOffset/>
<feGaussianBlur stdDeviation="5.138"/>
<feComposite in2="hardAlpha" operator="out"/>
<feColorMatrix type="matrix" values="0 0 0 0 0 0 0 0 0 0 0 0 0 0 0 0 0 0 0.25 0"/>
<feBlend mode="normal" in2="BackgroundImageFix" result="effect1_dropShadow_6680_105799"/>
<feBlend mode="normal" in="SourceGraphic" in2="effect1_dropShadow_6680_105799" result="shape"/>
</filter>
</defs>
</svg>
