<svg width="675" height="706" viewBox="0 0 675 706" fill="none" xmlns="http://www.w3.org/2000/svg">
<rect width="674.73" height="704.72" transform="translate(0 0.720703)" fill="white"/>
<path d="M52.9219 30.0051C52.9219 30.0051 53.7585 30.8418 54.5952 32.5151C54.5952 32.5151 57.2528 28.3318 59.6152 27.4951" stroke="#0A0A41" stroke-width="2.5" stroke-linecap="round" stroke-linejoin="round"/>
<path d="M44.5734 21.6436C40.3926 21.4666 37.1626 21.9482 37.1626 21.9482C35.1231 22.094 31.2145 23.2374 31.2145 29.9152C31.2146 36.5362 31.1713 44.6987 31.2145 47.9527C31.2145 49.9408 32.4455 54.5781 36.706 54.8266C41.8847 55.1288 51.213 55.193 55.4929 54.8266C56.6386 54.762 60.4529 53.8625 60.9357 49.7125C61.4359 45.4132 61.3363 42.4253 61.3363 41.7141" stroke="#22CB67" stroke-width="2.5" stroke-linecap="round" stroke-linejoin="round"/>
<path d="M64.6674 30.0024C64.6674 34.6232 60.9179 38.3691 56.2927 38.3691C51.6674 38.3691 47.918 34.6232 47.918 30.0024C47.918 25.3816 51.6674 21.6357 56.2927 21.6357C60.9179 21.6357 64.6674 25.3816 64.6674 30.0024Z" stroke="#0A0A41" stroke-width="2.5" stroke-linecap="round"/>
<path d="M39.5391 40.0449H46.2323" stroke="#22CB67" stroke-width="2.5" stroke-linecap="round"/>
<path d="M39.5391 46.7354H52.9257" stroke="#22CB67" stroke-width="2.5" stroke-linecap="round"/>
<path d="M35.58 94.7319C34.2627 94.7319 33.1014 94.4979 32.096 94.0299C31.0907 93.5446 30.3107 92.8686 29.756 92.0019C29.2014 91.1353 28.9154 90.1213 28.898 88.9599H31.654C31.654 89.6186 31.8014 90.2253 32.096 90.7799C32.408 91.3173 32.85 91.7506 33.422 92.0799C34.0114 92.3919 34.7307 92.5479 35.58 92.5479C36.308 92.5479 36.932 92.4353 37.452 92.2099C37.9894 91.9673 38.3967 91.6379 38.674 91.2219C38.9687 90.7886 39.116 90.2946 39.116 89.7399C39.116 89.0639 38.9687 88.5266 38.674 88.1279C38.3794 87.7119 37.972 87.3739 37.452 87.1139C36.9494 86.8366 36.3774 86.5939 35.736 86.3859C35.0947 86.1779 34.4187 85.9526 33.708 85.7099C32.2867 85.2246 31.2207 84.6093 30.51 83.8639C29.8167 83.1186 29.47 82.1479 29.47 80.9519C29.47 79.9466 29.704 79.0713 30.172 78.3259C30.6574 77.5633 31.342 76.9739 32.226 76.5579C33.11 76.1246 34.1414 75.9079 35.32 75.9079C36.516 75.9079 37.5474 76.1246 38.414 76.5579C39.298 76.9913 39.9914 77.5893 40.494 78.3519C40.9967 79.1146 41.2567 80.0073 41.274 81.0299H38.518C38.518 80.5446 38.388 80.0853 38.128 79.6519C37.8854 79.2013 37.5214 78.8373 37.036 78.5599C36.5507 78.2653 35.9527 78.1179 35.242 78.1179C34.6527 78.1006 34.124 78.1959 33.656 78.4039C33.188 78.5946 32.824 78.8893 32.564 79.2879C32.304 79.6693 32.174 80.1546 32.174 80.7439C32.174 81.2813 32.2867 81.7233 32.512 82.0699C32.7547 82.3993 33.0927 82.6853 33.526 82.9279C33.9767 83.1706 34.5054 83.3959 35.112 83.6039C35.7187 83.8119 36.386 84.0373 37.114 84.2799C38.0154 84.5746 38.8127 84.9386 39.506 85.3719C40.2167 85.7879 40.78 86.3339 41.196 87.0099C41.612 87.6686 41.82 88.5179 41.82 89.5579C41.82 90.4593 41.586 91.2999 41.118 92.0799C40.65 92.8599 39.9567 93.5013 39.038 94.0039C38.1194 94.4893 36.9667 94.7319 35.58 94.7319ZM49.9081 94.4199C49.0934 94.4199 48.3827 94.2899 47.7761 94.0299C47.1694 93.7699 46.7014 93.3366 46.3721 92.7299C46.0427 92.1233 45.8781 91.2999 45.8781 90.2599V83.6819H43.6421V81.5239H45.8781L46.1901 78.2999H48.4781V81.5239H52.1701V83.6819H48.4781V90.2859C48.4781 91.0313 48.6254 91.5426 48.9201 91.8199C49.2321 92.0799 49.7781 92.2099 50.5581 92.2099H51.9881V94.4199H49.9081ZM59.1017 94.7319C58.027 94.7319 57.1344 94.5586 56.4237 94.2119C55.713 93.8479 55.1844 93.3626 54.8377 92.7559C54.5084 92.1493 54.3437 91.4906 54.3437 90.7799C54.3437 89.9306 54.5604 89.2026 54.9937 88.5959C55.4444 87.9893 56.0857 87.5213 56.9177 87.1919C57.7497 86.8626 58.755 86.6979 59.9337 86.6979H63.3657C63.3657 85.9526 63.2444 85.3373 63.0017 84.8519C62.759 84.3493 62.4124 83.9766 61.9617 83.7339C61.5284 83.4913 60.9824 83.3699 60.3237 83.3699C59.5437 83.3699 58.859 83.5606 58.2697 83.9419C57.6977 84.3233 57.3424 84.8953 57.2037 85.6579H54.6037C54.7077 84.7046 55.0284 83.9073 55.5657 83.2659C56.103 82.6073 56.7877 82.1046 57.6197 81.7579C58.469 81.3939 59.379 81.2119 60.3497 81.2119C61.5457 81.2119 62.5597 81.4286 63.3917 81.8619C64.241 82.2953 64.8824 82.9106 65.3157 83.7079C65.749 84.4879 65.9657 85.4153 65.9657 86.4899V94.4199H63.7037L63.4957 92.2099H63.4697C63.279 92.5739 63.045 92.9119 62.7677 93.2239C62.5077 93.5359 62.1957 93.8046 61.8317 94.0299C61.485 94.2379 61.0777 94.4026 60.6097 94.5239C60.159 94.6626 59.6564 94.7319 59.1017 94.7319ZM59.6217 92.6259C60.1937 92.6259 60.705 92.5133 61.1557 92.2879C61.6064 92.0626 61.9877 91.7593 62.2997 91.3779C62.629 90.9793 62.8717 90.5373 63.0277 90.0519C63.201 89.5666 63.2964 89.0639 63.3137 88.5439H60.1937C59.4484 88.5439 58.8417 88.6306 58.3737 88.8039C57.9057 88.9773 57.5677 89.2199 57.3597 89.5319C57.169 89.8439 57.0737 90.2079 57.0737 90.6239C57.0737 91.0226 57.169 91.3779 57.3597 91.6899C57.5677 91.9846 57.8624 92.2186 58.2437 92.3919C58.625 92.5479 59.0844 92.6259 59.6217 92.6259ZM70.183 100.088L73.381 92.9639H72.601L67.427 81.5239H70.235L74.369 90.8579H74.395L78.529 81.5239H81.233L72.913 100.088H70.183ZM95.8042 94.7319C94.5908 94.7319 93.4902 94.4546 92.5022 93.8999C91.5315 93.3279 90.7602 92.5393 90.1882 91.5339C89.6162 90.5113 89.3302 89.3239 89.3302 87.9719C89.3302 86.6199 89.6162 85.4413 90.1882 84.4359C90.7775 83.4133 91.5662 82.6246 92.5542 82.0699C93.5422 81.4979 94.6428 81.2119 95.8562 81.2119C97.0868 81.2119 98.1875 81.4979 99.1582 82.0699C100.146 82.6246 100.926 83.4046 101.498 84.4099C102.07 85.4153 102.356 86.6026 102.356 87.9719C102.356 89.3239 102.061 90.5113 101.472 91.5339C100.9 92.5393 100.12 93.3279 99.1322 93.8999C98.1442 94.4546 97.0348 94.7319 95.8042 94.7319ZM95.8302 92.5219C96.5235 92.5219 97.1562 92.3573 97.7282 92.0279C98.3175 91.6813 98.7942 91.1699 99.1582 90.4939C99.5222 89.8179 99.7042 88.9773 99.7042 87.9719C99.7042 86.9493 99.5222 86.1086 99.1582 85.4499C98.8115 84.7739 98.3435 84.2713 97.7542 83.9419C97.1648 83.5953 96.5322 83.4219 95.8562 83.4219C95.1975 83.4219 94.5648 83.5953 93.9582 83.9419C93.3688 84.2713 92.8922 84.7739 92.5282 85.4499C92.1815 86.1259 92.0082 86.9666 92.0082 87.9719C92.0082 88.9773 92.1815 89.8179 92.5282 90.4939C92.8922 91.1699 93.3602 91.6813 93.9322 92.0279C94.5215 92.3573 95.1542 92.5219 95.8302 92.5219ZM105.185 94.4199V81.5239H107.499L107.681 83.7599H107.707C108.123 82.9799 108.713 82.3646 109.475 81.9139C110.238 81.4459 111.122 81.2119 112.127 81.2119C113.167 81.2119 114.06 81.4286 114.805 81.8619C115.551 82.2779 116.123 82.9106 116.521 83.7599C116.937 84.6093 117.145 85.6839 117.145 86.9839V94.4199H114.545V87.2439C114.545 85.9959 114.277 85.0513 113.739 84.4099C113.219 83.7513 112.448 83.4219 111.425 83.4219C110.715 83.4219 110.082 83.5953 109.527 83.9419C108.99 84.2713 108.565 84.7566 108.253 85.3979C107.941 86.0393 107.785 86.8193 107.785 87.7379V94.4199H105.185ZM132.021 94.4199C131.207 94.4199 130.496 94.2899 129.889 94.0299C129.283 93.7699 128.815 93.3366 128.485 92.7299C128.156 92.1233 127.991 91.2999 127.991 90.2599V83.6819H125.755V81.5239H127.991L128.303 78.2999H130.591V81.5239H134.283V83.6819H130.591V90.2859C130.591 91.0313 130.739 91.5426 131.033 91.8199C131.345 92.0799 131.891 92.2099 132.671 92.2099H134.101V94.4199H132.021ZM142.498 94.7319C141.284 94.7319 140.184 94.4546 139.196 93.8999C138.225 93.3279 137.454 92.5393 136.882 91.5339C136.31 90.5113 136.024 89.3239 136.024 87.9719C136.024 86.6199 136.31 85.4413 136.882 84.4359C137.471 83.4133 138.26 82.6246 139.248 82.0699C140.236 81.4979 141.336 81.2119 142.55 81.2119C143.78 81.2119 144.881 81.4979 145.852 82.0699C146.84 82.6246 147.62 83.4046 148.192 84.4099C148.764 85.4153 149.05 86.6026 149.05 87.9719C149.05 89.3239 148.755 90.5113 148.166 91.5339C147.594 92.5393 146.814 93.3279 145.826 93.8999C144.838 94.4546 143.728 94.7319 142.498 94.7319ZM142.524 92.5219C143.217 92.5219 143.85 92.3573 144.422 92.0279C145.011 91.6813 145.488 91.1699 145.852 90.4939C146.216 89.8179 146.398 88.9773 146.398 87.9719C146.398 86.9493 146.216 86.1086 145.852 85.4499C145.505 84.7739 145.037 84.2713 144.448 83.9419C143.858 83.5953 143.226 83.4219 142.55 83.4219C141.891 83.4219 141.258 83.5953 140.652 83.9419C140.062 84.2713 139.586 84.7739 139.222 85.4499C138.875 86.1259 138.702 86.9666 138.702 87.9719C138.702 88.9773 138.875 89.8179 139.222 90.4939C139.586 91.1699 140.054 91.6813 140.626 92.0279C141.215 92.3573 141.848 92.5219 142.524 92.5219ZM151.905 100.088V81.5239H154.219L154.479 83.6039C154.774 83.1706 155.129 82.7719 155.545 82.4079C155.978 82.0439 156.49 81.7579 157.079 81.5499C157.668 81.3246 158.344 81.2119 159.107 81.2119C160.372 81.2119 161.473 81.5066 162.409 82.0959C163.362 82.6853 164.099 83.4913 164.619 84.5139C165.156 85.5366 165.425 86.6979 165.425 87.9979C165.425 89.2979 165.156 90.4593 164.619 91.4819C164.099 92.4873 163.362 93.2846 162.409 93.8739C161.456 94.4459 160.338 94.7319 159.055 94.7319C158.032 94.7319 157.131 94.5239 156.351 94.1079C155.571 93.6919 154.956 93.1286 154.505 92.4179V100.088H151.905ZM158.665 92.4699C159.48 92.4699 160.199 92.2879 160.823 91.9239C161.447 91.5426 161.932 91.0139 162.279 90.3379C162.626 89.6619 162.799 88.8733 162.799 87.9719C162.799 87.0879 162.626 86.3079 162.279 85.6319C161.932 84.9559 161.447 84.4273 160.823 84.0459C160.199 83.6646 159.48 83.4739 158.665 83.4739C157.85 83.4739 157.122 83.6646 156.481 84.0459C155.857 84.4273 155.372 84.9559 155.025 85.6319C154.678 86.3079 154.505 87.0879 154.505 87.9719C154.505 88.8733 154.678 89.6619 155.025 90.3379C155.372 91.0139 155.857 91.5426 156.481 91.9239C157.122 92.2879 157.85 92.4699 158.665 92.4699ZM177.304 94.4199L173.56 81.5239H176.16L178.968 92.4959L178.422 92.4699L181.568 81.5239H184.506L187.678 92.4699L187.106 92.4959L189.914 81.5239H192.514L188.77 94.4199H186.04L182.738 83.0579H183.336L180.034 94.4199H177.304ZM194.921 94.4199V81.5239H197.521V94.4199H194.921ZM196.221 79.0019C195.719 79.0019 195.303 78.8459 194.973 78.5339C194.661 78.2219 194.505 77.8233 194.505 77.3379C194.505 76.8699 194.661 76.4886 194.973 76.1939C195.303 75.8819 195.719 75.7259 196.221 75.7259C196.707 75.7259 197.114 75.8819 197.443 76.1939C197.773 76.4886 197.937 76.8786 197.937 77.3639C197.937 77.8319 197.773 78.2219 197.443 78.5339C197.114 78.8459 196.707 79.0019 196.221 79.0019ZM206.39 94.4199C205.576 94.4199 204.865 94.2899 204.258 94.0299C203.652 93.7699 203.184 93.3366 202.854 92.7299C202.525 92.1233 202.36 91.2999 202.36 90.2599V83.6819H200.124V81.5239H202.36L202.672 78.2999H204.96V81.5239H208.652V83.6819H204.96V90.2859C204.96 91.0313 205.108 91.5426 205.402 91.8199C205.714 92.0799 206.26 92.2099 207.04 92.2099H208.47V94.4199H206.39ZM211.268 94.4199V75.7519H213.868V83.6559C214.319 82.8933 214.925 82.2953 215.688 81.8619C216.451 81.4286 217.309 81.2119 218.262 81.2119C219.267 81.2119 220.143 81.4286 220.888 81.8619C221.633 82.2779 222.205 82.9193 222.604 83.7859C223.02 84.6353 223.228 85.7013 223.228 86.9839V94.4199H220.654V87.2439C220.654 85.9959 220.394 85.0513 219.874 84.4099C219.371 83.7513 218.6 83.4219 217.56 83.4219C216.867 83.4219 216.234 83.5953 215.662 83.9419C215.107 84.2713 214.665 84.7566 214.336 85.3979C214.024 86.0393 213.868 86.8193 213.868 87.7379V94.4199H211.268ZM238.728 94.7319C237.48 94.7319 236.362 94.4546 235.374 93.8999C234.403 93.3279 233.641 92.5393 233.086 91.5339C232.531 90.5286 232.254 89.3499 232.254 87.9979C232.254 86.6459 232.523 85.4673 233.06 84.4619C233.615 83.4393 234.377 82.6419 235.348 82.0699C236.336 81.4979 237.48 81.2119 238.78 81.2119C240.045 81.2119 241.137 81.4979 242.056 82.0699C242.992 82.6246 243.711 83.3613 244.214 84.2799C244.717 85.1986 244.968 86.2213 244.968 87.3479C244.968 87.5213 244.968 87.7119 244.968 87.9199C244.968 88.1279 244.959 88.3446 244.942 88.5699H234.178V86.7499H242.368C242.316 85.6926 241.952 84.8606 241.276 84.2539C240.6 83.6473 239.751 83.3439 238.728 83.3439C238.035 83.3439 237.385 83.4999 236.778 83.8119C236.189 84.1239 235.712 84.5833 235.348 85.1899C234.984 85.7966 234.802 86.5593 234.802 87.4779V88.2059C234.802 89.1593 234.984 89.9653 235.348 90.6239C235.712 91.2653 236.189 91.7506 236.778 92.0799C237.385 92.4093 238.035 92.5739 238.728 92.5739C239.543 92.5739 240.227 92.3919 240.782 92.0279C241.337 91.6466 241.744 91.1353 242.004 90.4939H244.604C244.379 91.3086 243.997 92.0366 243.46 92.6779C242.923 93.3019 242.255 93.8046 241.458 94.1859C240.661 94.5499 239.751 94.7319 238.728 94.7319ZM248.406 94.4199V79.6259C248.406 78.7073 248.553 77.9706 248.848 77.4159C249.16 76.8439 249.61 76.4279 250.2 76.1679C250.789 75.8906 251.5 75.7519 252.332 75.7519H253.684V77.9619H252.722C252.115 77.9619 251.673 78.0919 251.396 78.3519C251.136 78.5946 251.006 79.0279 251.006 79.6519V94.4199H248.406ZM246.508 83.6819V81.5239H254.022V83.6819H246.508ZM257.191 94.4199V79.6259C257.191 78.7073 257.338 77.9706 257.633 77.4159C257.945 76.8439 258.395 76.4279 258.985 76.1679C259.574 75.8906 260.285 75.7519 261.117 75.7519H262.469V77.9619H261.507C260.9 77.9619 260.458 78.0919 260.181 78.3519C259.921 78.5946 259.791 79.0279 259.791 79.6519V94.4199H257.191ZM255.293 83.6819V81.5239H262.807V83.6819H255.293ZM270.796 94.7319C269.583 94.7319 268.482 94.4546 267.494 93.8999C266.524 93.3279 265.752 92.5393 265.18 91.5339C264.608 90.5113 264.322 89.3239 264.322 87.9719C264.322 86.6199 264.608 85.4413 265.18 84.4359C265.77 83.4133 266.558 82.6246 267.546 82.0699C268.534 81.4979 269.635 81.2119 270.848 81.2119C272.079 81.2119 273.18 81.4979 274.15 82.0699C275.138 82.6246 275.918 83.4046 276.49 84.4099C277.062 85.4153 277.348 86.6026 277.348 87.9719C277.348 89.3239 277.054 90.5113 276.464 91.5339C275.892 92.5393 275.112 93.3279 274.124 93.8999C273.136 94.4546 272.027 94.7319 270.796 94.7319ZM270.822 92.5219C271.516 92.5219 272.148 92.3573 272.72 92.0279C273.31 91.6813 273.786 91.1699 274.15 90.4939C274.514 89.8179 274.696 88.9773 274.696 87.9719C274.696 86.9493 274.514 86.1086 274.15 85.4499C273.804 84.7739 273.336 84.2713 272.746 83.9419C272.157 83.5953 271.524 83.4219 270.848 83.4219C270.19 83.4219 269.557 83.5953 268.95 83.9419C268.361 84.2713 267.884 84.7739 267.52 85.4499C267.174 86.1259 267 86.9666 267 87.9719C267 88.9773 267.174 89.8179 267.52 90.4939C267.884 91.1699 268.352 91.6813 268.924 92.0279C269.514 92.3573 270.146 92.5219 270.822 92.5219ZM280.178 94.4199V81.5239H282.518L282.752 84.0459C283.064 83.4219 283.445 82.9019 283.896 82.4859C284.346 82.0699 284.875 81.7579 285.482 81.5499C286.088 81.3246 286.773 81.2119 287.536 81.2119V83.9419H286.834C286.262 83.9419 285.724 84.0199 285.222 84.1759C284.736 84.3146 284.303 84.5399 283.922 84.8519C283.558 85.1639 283.272 85.5886 283.064 86.1259C282.873 86.6633 282.778 87.3306 282.778 88.1279V94.4199H280.178ZM295.105 94.4199C294.291 94.4199 293.58 94.2899 292.973 94.0299C292.367 93.7699 291.899 93.3366 291.569 92.7299C291.24 92.1233 291.075 91.2999 291.075 90.2599V83.6819H288.839V81.5239H291.075L291.387 78.2999H293.675V81.5239H297.367V83.6819H293.675V90.2859C293.675 91.0313 293.823 91.5426 294.117 91.8199C294.429 92.0799 294.975 92.2099 295.755 92.2099H297.185V94.4199H295.105ZM299.983 94.4199V75.7519H302.583V94.4199H299.983ZM311.929 94.7319C310.681 94.7319 309.563 94.4546 308.575 93.8999C307.604 93.3279 306.842 92.5393 306.287 91.5339C305.732 90.5286 305.455 89.3499 305.455 87.9979C305.455 86.6459 305.724 85.4673 306.261 84.4619C306.816 83.4393 307.578 82.6419 308.549 82.0699C309.537 81.4979 310.681 81.2119 311.981 81.2119C313.246 81.2119 314.338 81.4979 315.257 82.0699C316.193 82.6246 316.912 83.3613 317.415 84.2799C317.918 85.1986 318.169 86.2213 318.169 87.3479C318.169 87.5213 318.169 87.7119 318.169 87.9199C318.169 88.1279 318.16 88.3446 318.143 88.5699H307.379V86.7499H315.569C315.517 85.6926 315.153 84.8606 314.477 84.2539C313.801 83.6473 312.952 83.3439 311.929 83.3439C311.236 83.3439 310.586 83.4999 309.979 83.8119C309.39 84.1239 308.913 84.5833 308.549 85.1899C308.185 85.7966 308.003 86.5593 308.003 87.4779V88.2059C308.003 89.1593 308.185 89.9653 308.549 90.6239C308.913 91.2653 309.39 91.7506 309.979 92.0799C310.586 92.4093 311.236 92.5739 311.929 92.5739C312.744 92.5739 313.428 92.3919 313.983 92.0279C314.538 91.6466 314.945 91.1353 315.205 90.4939H317.805C317.58 91.3086 317.198 92.0366 316.661 92.6779C316.124 93.3019 315.456 93.8046 314.659 94.1859C313.862 94.5499 312.952 94.7319 311.929 94.7319ZM325.975 94.7319C324.9 94.7319 323.947 94.5499 323.115 94.1859C322.283 93.8219 321.616 93.3193 321.113 92.6779C320.61 92.0193 320.298 91.2479 320.177 90.3639H322.829C322.916 90.7799 323.089 91.1613 323.349 91.5079C323.626 91.8546 323.982 92.1319 324.415 92.3399C324.848 92.5306 325.368 92.6259 325.975 92.6259C326.547 92.6259 327.015 92.5479 327.379 92.3919C327.743 92.2186 328.012 92.0019 328.185 91.7419C328.358 91.4646 328.445 91.1699 328.445 90.8579C328.445 90.3899 328.324 90.0346 328.081 89.7919C327.838 89.5493 327.483 89.3586 327.015 89.2199C326.564 89.0639 326.018 88.9166 325.377 88.7779C324.857 88.6566 324.32 88.5093 323.765 88.3359C323.21 88.1626 322.699 87.9459 322.231 87.6859C321.78 87.4086 321.416 87.0619 321.139 86.6459C320.862 86.2299 320.723 85.7186 320.723 85.1119C320.723 84.3666 320.922 83.6993 321.321 83.1099C321.72 82.5206 322.283 82.0613 323.011 81.7319C323.739 81.3853 324.606 81.2119 325.611 81.2119C327.032 81.2119 328.185 81.5586 329.069 82.2519C329.97 82.9279 330.49 83.9073 330.629 85.1899H328.107C328.038 84.6006 327.778 84.1413 327.327 83.8119C326.894 83.4826 326.313 83.3179 325.585 83.3179C324.84 83.3179 324.276 83.4653 323.895 83.7599C323.514 84.0546 323.323 84.4359 323.323 84.9039C323.323 85.2159 323.436 85.4846 323.661 85.7099C323.904 85.9353 324.242 86.1259 324.675 86.2819C325.126 86.4379 325.654 86.5853 326.261 86.7239C327.11 86.9319 327.89 87.1659 328.601 87.4259C329.329 87.6686 329.918 88.0413 330.369 88.5439C330.837 89.0293 331.071 89.7313 331.071 90.6499C331.088 91.4299 330.889 92.1319 330.473 92.7559C330.057 93.3799 329.468 93.8653 328.705 94.2119C327.942 94.5586 327.032 94.7319 325.975 94.7319ZM339.026 94.7319C337.951 94.7319 336.998 94.5499 336.166 94.1859C335.334 93.8219 334.666 93.3193 334.164 92.6779C333.661 92.0193 333.349 91.2479 333.228 90.3639H335.88C335.966 90.7799 336.14 91.1613 336.4 91.5079C336.677 91.8546 337.032 92.1319 337.466 92.3399C337.899 92.5306 338.419 92.6259 339.026 92.6259C339.598 92.6259 340.066 92.5479 340.43 92.3919C340.794 92.2186 341.062 92.0019 341.236 91.7419C341.409 91.4646 341.496 91.1699 341.496 90.8579C341.496 90.3899 341.374 90.0346 341.132 89.7919C340.889 89.5493 340.534 89.3586 340.066 89.2199C339.615 89.0639 339.069 88.9166 338.428 88.7779C337.908 88.6566 337.37 88.5093 336.816 88.3359C336.261 88.1626 335.75 87.9459 335.282 87.6859C334.831 87.4086 334.467 87.0619 334.19 86.6459C333.912 86.2299 333.774 85.7186 333.774 85.1119C333.774 84.3666 333.973 83.6993 334.372 83.1099C334.77 82.5206 335.334 82.0613 336.062 81.7319C336.79 81.3853 337.656 81.2119 338.662 81.2119C340.083 81.2119 341.236 81.5586 342.12 82.2519C343.021 82.9279 343.541 83.9073 343.68 85.1899H341.158C341.088 84.6006 340.828 84.1413 340.378 83.8119C339.944 83.4826 339.364 83.3179 338.636 83.3179C337.89 83.3179 337.327 83.4653 336.946 83.7599C336.564 84.0546 336.374 84.4359 336.374 84.9039C336.374 85.2159 336.486 85.4846 336.712 85.7099C336.954 85.9353 337.292 86.1259 337.726 86.2819C338.176 86.4379 338.705 86.5853 339.312 86.7239C340.161 86.9319 340.941 87.1659 341.652 87.4259C342.38 87.6686 342.969 88.0413 343.42 88.5439C343.888 89.0293 344.122 89.7313 344.122 90.6499C344.139 91.4299 343.94 92.1319 343.524 92.7559C343.108 93.3799 342.518 93.8653 341.756 94.2119C340.993 94.5586 340.083 94.7319 339.026 94.7319ZM359.514 94.7319C358.248 94.7319 357.113 94.4459 356.108 93.8739C355.12 93.3019 354.34 92.5133 353.768 91.5079C353.213 90.4853 352.936 89.3066 352.936 87.9719C352.936 86.6373 353.222 85.4673 353.794 84.4619C354.366 83.4393 355.146 82.6419 356.134 82.0699C357.122 81.4979 358.248 81.2119 359.514 81.2119C361.108 81.2119 362.434 81.6279 363.492 82.4599C364.566 83.2746 365.251 84.3753 365.546 85.7619H362.842C362.668 85.0166 362.27 84.4446 361.646 84.0459C361.039 83.6299 360.32 83.4219 359.488 83.4219C358.812 83.4219 358.17 83.5953 357.564 83.9419C356.974 84.2886 356.498 84.7999 356.134 85.4759C355.787 86.1519 355.614 86.9839 355.614 87.9719C355.614 88.6999 355.718 89.3499 355.926 89.9219C356.134 90.4939 356.411 90.9793 356.758 91.3779C357.122 91.7593 357.538 92.0453 358.006 92.2359C358.474 92.4266 358.968 92.5219 359.488 92.5219C360.042 92.5219 360.545 92.4353 360.996 92.2619C361.464 92.0713 361.854 91.8026 362.166 91.4559C362.495 91.1093 362.72 90.6846 362.842 90.1819H365.546C365.251 91.5513 364.566 92.6519 363.492 93.4839C362.417 94.3159 361.091 94.7319 359.514 94.7319ZM374.365 94.7319C373.151 94.7319 372.051 94.4546 371.063 93.8999C370.092 93.3279 369.321 92.5393 368.749 91.5339C368.177 90.5113 367.891 89.3239 367.891 87.9719C367.891 86.6199 368.177 85.4413 368.749 84.4359C369.338 83.4133 370.127 82.6246 371.115 82.0699C372.103 81.4979 373.203 81.2119 374.417 81.2119C375.647 81.2119 376.748 81.4979 377.719 82.0699C378.707 82.6246 379.487 83.4046 380.059 84.4099C380.631 85.4153 380.917 86.6026 380.917 87.9719C380.917 89.3239 380.622 90.5113 380.033 91.5339C379.461 92.5393 378.681 93.3279 377.693 93.8999C376.705 94.4546 375.595 94.7319 374.365 94.7319ZM374.391 92.5219C375.084 92.5219 375.717 92.3573 376.289 92.0279C376.878 91.6813 377.355 91.1699 377.719 90.4939C378.083 89.8179 378.265 88.9773 378.265 87.9719C378.265 86.9493 378.083 86.1086 377.719 85.4499C377.372 84.7739 376.904 84.2713 376.315 83.9419C375.725 83.5953 375.093 83.4219 374.417 83.4219C373.758 83.4219 373.125 83.5953 372.519 83.9419C371.929 84.2713 371.453 84.7739 371.089 85.4499C370.742 86.1259 370.569 86.9666 370.569 87.9719C370.569 88.9773 370.742 89.8179 371.089 90.4939C371.453 91.1699 371.921 91.6813 372.493 92.0279C373.082 92.3573 373.715 92.5219 374.391 92.5219ZM383.746 94.4199V81.5239H386.06L386.268 83.3959H386.294C386.71 82.7026 387.265 82.1653 387.958 81.7839C388.651 81.4026 389.44 81.2119 390.324 81.2119C390.983 81.2119 391.581 81.3073 392.118 81.4979C392.673 81.6713 393.158 81.9399 393.574 82.3039C393.99 82.6679 394.337 83.1273 394.614 83.6819C395.082 82.9019 395.706 82.2953 396.486 81.8619C397.283 81.4286 398.141 81.2119 399.06 81.2119C400.117 81.2119 401.027 81.4286 401.79 81.8619C402.553 82.2779 403.133 82.9193 403.532 83.7859C403.948 84.6353 404.156 85.7013 404.156 86.9839V94.4199H401.582V87.2439C401.582 85.9959 401.331 85.0513 400.828 84.4099C400.325 83.7513 399.589 83.4219 398.618 83.4219C397.977 83.4219 397.396 83.5866 396.876 83.9159C396.373 84.2453 395.975 84.7306 395.68 85.3719C395.403 85.9959 395.264 86.7673 395.264 87.6859V94.4199H392.664V87.2439C392.664 85.9959 392.413 85.0513 391.91 84.4099C391.407 83.7513 390.671 83.4219 389.7 83.4219C389.076 83.4219 388.504 83.5953 387.984 83.9419C387.481 84.2713 387.083 84.7566 386.788 85.3979C386.493 86.0393 386.346 86.8193 386.346 87.7379V94.4199H383.746ZM407.284 100.088V81.5239H409.598L409.858 83.6039C410.152 83.1706 410.508 82.7719 410.924 82.4079C411.357 82.0439 411.868 81.7579 412.458 81.5499C413.047 81.3246 413.723 81.2119 414.486 81.2119C415.751 81.2119 416.852 81.5066 417.788 82.0959C418.741 82.6853 419.478 83.4913 419.998 84.5139C420.535 85.5366 420.804 86.6979 420.804 87.9979C420.804 89.2979 420.535 90.4593 419.998 91.4819C419.478 92.4873 418.741 93.2846 417.788 93.8739C416.834 94.4459 415.716 94.7319 414.434 94.7319C413.411 94.7319 412.51 94.5239 411.73 94.1079C410.95 93.6919 410.334 93.1286 409.884 92.4179V100.088H407.284ZM414.044 92.4699C414.858 92.4699 415.578 92.2879 416.202 91.9239C416.826 91.5426 417.311 91.0139 417.658 90.3379C418.004 89.6619 418.178 88.8733 418.178 87.9719C418.178 87.0879 418.004 86.3079 417.658 85.6319C417.311 84.9559 416.826 84.4273 416.202 84.0459C415.578 83.6646 414.858 83.4739 414.044 83.4739C413.229 83.4739 412.501 83.6646 411.86 84.0459C411.236 84.4273 410.75 84.9559 410.404 85.6319C410.057 86.3079 409.884 87.0879 409.884 87.9719C409.884 88.8733 410.057 89.6619 410.404 90.3379C410.75 91.0139 411.236 91.5426 411.86 91.9239C412.501 92.2879 413.229 92.4699 414.044 92.4699ZM423.686 94.4199V75.7519H426.286V94.4199H423.686ZM429.886 94.4199V81.5239H432.486V94.4199H429.886ZM431.186 79.0019C430.684 79.0019 430.268 78.8459 429.938 78.5339C429.626 78.2219 429.47 77.8233 429.47 77.3379C429.47 76.8699 429.626 76.4886 429.938 76.1939C430.268 75.8819 430.684 75.7259 431.186 75.7259C431.672 75.7259 432.079 75.8819 432.408 76.1939C432.738 76.4886 432.902 76.8786 432.902 77.3639C432.902 77.8319 432.738 78.2219 432.408 78.5339C432.079 78.8459 431.672 79.0019 431.186 79.0019ZM440.367 94.7319C439.293 94.7319 438.4 94.5586 437.689 94.2119C436.979 93.8479 436.45 93.3626 436.103 92.7559C435.774 92.1493 435.609 91.4906 435.609 90.7799C435.609 89.9306 435.826 89.2026 436.259 88.5959C436.71 87.9893 437.351 87.5213 438.183 87.1919C439.015 86.8626 440.021 86.6979 441.199 86.6979H444.631C444.631 85.9526 444.51 85.3373 444.267 84.8519C444.025 84.3493 443.678 83.9766 443.227 83.7339C442.794 83.4913 442.248 83.3699 441.589 83.3699C440.809 83.3699 440.125 83.5606 439.535 83.9419C438.963 84.3233 438.608 84.8953 438.469 85.6579H435.869C435.973 84.7046 436.294 83.9073 436.831 83.2659C437.369 82.6073 438.053 82.1046 438.885 81.7579C439.735 81.3939 440.645 81.2119 441.615 81.2119C442.811 81.2119 443.825 81.4286 444.657 81.8619C445.507 82.2953 446.148 82.9106 446.581 83.7079C447.015 84.4879 447.231 85.4153 447.231 86.4899V94.4199H444.969L444.761 92.2099H444.735C444.545 92.5739 444.311 92.9119 444.033 93.2239C443.773 93.5359 443.461 93.8046 443.097 94.0299C442.751 94.2379 442.343 94.4026 441.875 94.5239C441.425 94.6626 440.922 94.7319 440.367 94.7319ZM440.887 92.6259C441.459 92.6259 441.971 92.5133 442.421 92.2879C442.872 92.0626 443.253 91.7593 443.565 91.3779C443.895 90.9793 444.137 90.5373 444.293 90.0519C444.467 89.5666 444.562 89.0639 444.579 88.5439H441.459C440.714 88.5439 440.107 88.6306 439.639 88.8039C439.171 88.9773 438.833 89.2199 438.625 89.5319C438.435 89.8439 438.339 90.2079 438.339 90.6239C438.339 91.0226 438.435 91.3779 438.625 91.6899C438.833 91.9846 439.128 92.2186 439.509 92.3919C439.891 92.5479 440.35 92.6259 440.887 92.6259ZM450.295 94.4199V81.5239H452.609L452.791 83.7599H452.817C453.233 82.9799 453.822 82.3646 454.585 81.9139C455.348 81.4459 456.232 81.2119 457.237 81.2119C458.277 81.2119 459.17 81.4286 459.915 81.8619C460.66 82.2779 461.232 82.9106 461.631 83.7599C462.047 84.6093 462.255 85.6839 462.255 86.9839V94.4199H459.655V87.2439C459.655 85.9959 459.386 85.0513 458.849 84.4099C458.329 83.7513 457.558 83.4219 456.535 83.4219C455.824 83.4219 455.192 83.5953 454.637 83.9419C454.1 84.2713 453.675 84.7566 453.363 85.3979C453.051 86.0393 452.895 86.8193 452.895 87.7379V94.4199H450.295ZM471.436 94.7319C470.17 94.7319 469.035 94.4459 468.03 93.8739C467.042 93.3019 466.262 92.5133 465.69 91.5079C465.135 90.4853 464.858 89.3066 464.858 87.9719C464.858 86.6373 465.144 85.4673 465.716 84.4619C466.288 83.4393 467.068 82.6419 468.056 82.0699C469.044 81.4979 470.17 81.2119 471.436 81.2119C473.03 81.2119 474.356 81.6279 475.414 82.4599C476.488 83.2746 477.173 84.3753 477.468 85.7619H474.764C474.59 85.0166 474.192 84.4446 473.568 84.0459C472.961 83.6299 472.242 83.4219 471.41 83.4219C470.734 83.4219 470.092 83.5953 469.486 83.9419C468.896 84.2886 468.42 84.7999 468.056 85.4759C467.709 86.1519 467.536 86.9839 467.536 87.9719C467.536 88.6999 467.64 89.3499 467.848 89.9219C468.056 90.4939 468.333 90.9793 468.68 91.3779C469.044 91.7593 469.46 92.0453 469.928 92.2359C470.396 92.4266 470.89 92.5219 471.41 92.5219C471.964 92.5219 472.467 92.4353 472.918 92.2619C473.386 92.0713 473.776 91.8026 474.088 91.4559C474.417 91.1093 474.642 90.6846 474.764 90.1819H477.468C477.173 91.5513 476.488 92.6519 475.414 93.4839C474.339 94.3159 473.013 94.7319 471.436 94.7319ZM486.287 94.7319C485.039 94.7319 483.921 94.4546 482.933 93.8999C481.962 93.3279 481.199 92.5393 480.645 91.5339C480.09 90.5286 479.813 89.3499 479.813 87.9979C479.813 86.6459 480.081 85.4673 480.619 84.4619C481.173 83.4393 481.936 82.6419 482.907 82.0699C483.895 81.4979 485.039 81.2119 486.339 81.2119C487.604 81.2119 488.696 81.4979 489.615 82.0699C490.551 82.6246 491.27 83.3613 491.773 84.2799C492.275 85.1986 492.527 86.2213 492.527 87.3479C492.527 87.5213 492.527 87.7119 492.527 87.9199C492.527 88.1279 492.518 88.3446 492.501 88.5699H481.737V86.7499H489.927C489.875 85.6926 489.511 84.8606 488.835 84.2539C488.159 83.6473 487.309 83.3439 486.287 83.3439C485.593 83.3439 484.943 83.4999 484.337 83.8119C483.747 84.1239 483.271 84.5833 482.907 85.1899C482.543 85.7966 482.361 86.5593 482.361 87.4779V88.2059C482.361 89.1593 482.543 89.9653 482.907 90.6239C483.271 91.2653 483.747 91.7506 484.337 92.0799C484.943 92.4093 485.593 92.5739 486.287 92.5739C487.101 92.5739 487.786 92.3919 488.341 92.0279C488.895 91.6466 489.303 91.1353 489.563 90.4939H492.163C491.937 91.3086 491.556 92.0366 491.019 92.6779C490.481 93.3019 489.814 93.8046 489.017 94.1859C488.219 94.5499 487.309 94.7319 486.287 94.7319ZM506.781 94.7319C505.707 94.7319 504.753 94.5499 503.921 94.1859C503.089 93.8219 502.422 93.3193 501.919 92.6779C501.417 92.0193 501.105 91.2479 500.983 90.3639H503.635C503.722 90.7799 503.895 91.1613 504.155 91.5079C504.433 91.8546 504.788 92.1319 505.221 92.3399C505.655 92.5306 506.175 92.6259 506.781 92.6259C507.353 92.6259 507.821 92.5479 508.185 92.3919C508.549 92.2186 508.818 92.0019 508.991 91.7419C509.165 91.4646 509.251 91.1699 509.251 90.8579C509.251 90.3899 509.13 90.0346 508.887 89.7919C508.645 89.5493 508.289 89.3586 507.821 89.2199C507.371 89.0639 506.825 88.9166 506.183 88.7779C505.663 88.6566 505.126 88.5093 504.571 88.3359C504.017 88.1626 503.505 87.9459 503.037 87.6859C502.587 87.4086 502.223 87.0619 501.945 86.6459C501.668 86.2299 501.529 85.7186 501.529 85.1119C501.529 84.3666 501.729 83.6993 502.127 83.1099C502.526 82.5206 503.089 82.0613 503.817 81.7319C504.545 81.3853 505.412 81.2119 506.417 81.2119C507.839 81.2119 508.991 81.5586 509.875 82.2519C510.777 82.9279 511.297 83.9073 511.435 85.1899H508.913C508.844 84.6006 508.584 84.1413 508.133 83.8119C507.7 83.4826 507.119 83.3179 506.391 83.3179C505.646 83.3179 505.083 83.4653 504.701 83.7599C504.32 84.0546 504.129 84.4359 504.129 84.9039C504.129 85.2159 504.242 85.4846 504.467 85.7099C504.71 85.9353 505.048 86.1259 505.481 86.2819C505.932 86.4379 506.461 86.5853 507.067 86.7239C507.917 86.9319 508.697 87.1659 509.407 87.4259C510.135 87.6686 510.725 88.0413 511.175 88.5439C511.643 89.0293 511.877 89.7313 511.877 90.6499C511.895 91.4299 511.695 92.1319 511.279 92.7559C510.863 93.3799 510.274 93.8653 509.511 94.2119C508.749 94.5586 507.839 94.7319 506.781 94.7319ZM520.716 94.7319C519.503 94.7319 518.402 94.4546 517.414 93.8999C516.444 93.3279 515.672 92.5393 515.1 91.5339C514.528 90.5113 514.242 89.3239 514.242 87.9719C514.242 86.6199 514.528 85.4413 515.1 84.4359C515.69 83.4133 516.478 82.6246 517.466 82.0699C518.454 81.4979 519.555 81.2119 520.768 81.2119C521.999 81.2119 523.1 81.4979 524.07 82.0699C525.058 82.6246 525.838 83.4046 526.41 84.4099C526.982 85.4153 527.268 86.6026 527.268 87.9719C527.268 89.3239 526.974 90.5113 526.384 91.5339C525.812 92.5393 525.032 93.3279 524.044 93.8999C523.056 94.4546 521.947 94.7319 520.716 94.7319ZM520.742 92.5219C521.436 92.5219 522.068 92.3573 522.64 92.0279C523.23 91.6813 523.706 91.1699 524.07 90.4939C524.434 89.8179 524.616 88.9773 524.616 87.9719C524.616 86.9493 524.434 86.1086 524.07 85.4499C523.724 84.7739 523.256 84.2713 522.666 83.9419C522.077 83.5953 521.444 83.4219 520.768 83.4219C520.11 83.4219 519.477 83.5953 518.87 83.9419C518.281 84.2713 517.804 84.7739 517.44 85.4499C517.094 86.1259 516.92 86.9666 516.92 87.9719C516.92 88.9773 517.094 89.8179 517.44 90.4939C517.804 91.1699 518.272 91.6813 518.844 92.0279C519.434 92.3573 520.066 92.5219 520.742 92.5219ZM530.124 94.4199V75.7519H532.724V94.4199H530.124ZM540.848 94.7319C539.825 94.7319 538.932 94.5239 538.17 94.1079C537.424 93.6746 536.852 93.0333 536.454 92.1839C536.055 91.3346 535.856 90.2599 535.856 88.9599V81.5239H538.456V88.6999C538.456 89.9653 538.716 90.9186 539.236 91.5599C539.756 92.2013 540.527 92.5219 541.55 92.5219C542.26 92.5219 542.884 92.3573 543.422 92.0279C543.976 91.6813 544.41 91.1873 544.722 90.5459C545.051 89.9046 545.216 89.1246 545.216 88.2059V81.5239H547.816V94.4199H545.476L545.294 92.1839C544.878 92.9639 544.28 93.5879 543.5 94.0559C542.737 94.5066 541.853 94.7319 540.848 94.7319ZM556.476 94.4199C555.662 94.4199 554.951 94.2899 554.344 94.0299C553.738 93.7699 553.27 93.3366 552.94 92.7299C552.611 92.1233 552.446 91.2999 552.446 90.2599V83.6819H550.21V81.5239H552.446L552.758 78.2999H555.046V81.5239H558.738V83.6819H555.046V90.2859C555.046 91.0313 555.194 91.5426 555.488 91.8199C555.8 92.0799 556.346 92.2099 557.126 92.2099H558.556V94.4199H556.476ZM561.562 94.4199V81.5239H564.162V94.4199H561.562ZM562.862 79.0019C562.359 79.0019 561.943 78.8459 561.614 78.5339C561.302 78.2219 561.146 77.8233 561.146 77.3379C561.146 76.8699 561.302 76.4886 561.614 76.1939C561.943 75.8819 562.359 75.7259 562.862 75.7259C563.347 75.7259 563.755 75.8819 564.084 76.1939C564.413 76.4886 564.578 76.8786 564.578 77.3639C564.578 77.8319 564.413 78.2219 564.084 78.5339C563.755 78.8459 563.347 79.0019 562.862 79.0019ZM573.681 94.7319C572.468 94.7319 571.367 94.4546 570.379 93.8999C569.408 93.3279 568.637 92.5393 568.065 91.5339C567.493 90.5113 567.207 89.3239 567.207 87.9719C567.207 86.6199 567.493 85.4413 568.065 84.4359C568.654 83.4133 569.443 82.6246 570.431 82.0699C571.419 81.4979 572.52 81.2119 573.733 81.2119C574.964 81.2119 576.064 81.4979 577.035 82.0699C578.023 82.6246 578.803 83.4046 579.375 84.4099C579.947 85.4153 580.233 86.6026 580.233 87.9719C580.233 89.3239 579.938 90.5113 579.349 91.5339C578.777 92.5393 577.997 93.3279 577.009 93.8999C576.021 94.4546 574.912 94.7319 573.681 94.7319ZM573.707 92.5219C574.4 92.5219 575.033 92.3573 575.605 92.0279C576.194 91.6813 576.671 91.1699 577.035 90.4939C577.399 89.8179 577.581 88.9773 577.581 87.9719C577.581 86.9493 577.399 86.1086 577.035 85.4499C576.688 84.7739 576.22 84.2713 575.631 83.9419C575.042 83.5953 574.409 83.4219 573.733 83.4219C573.074 83.4219 572.442 83.5953 571.835 83.9419C571.246 84.2713 570.769 84.7739 570.405 85.4499C570.058 86.1259 569.885 86.9666 569.885 87.9719C569.885 88.9773 570.058 89.8179 570.405 90.4939C570.769 91.1699 571.237 91.6813 571.809 92.0279C572.398 92.3573 573.031 92.5219 573.707 92.5219ZM583.062 94.4199V81.5239H585.376L585.558 83.7599H585.584C586 82.9799 586.59 82.3646 587.352 81.9139C588.115 81.4459 588.999 81.2119 590.004 81.2119C591.044 81.2119 591.937 81.4286 592.682 81.8619C593.428 82.2779 594 82.9106 594.398 83.7599C594.814 84.6093 595.022 85.6839 595.022 86.9839V94.4199H592.422V87.2439C592.422 85.9959 592.154 85.0513 591.616 84.4099C591.096 83.7513 590.325 83.4219 589.302 83.4219C588.592 83.4219 587.959 83.5953 587.404 83.9419C586.867 84.2713 586.442 84.7566 586.13 85.3979C585.818 86.0393 585.662 86.8193 585.662 87.7379V94.4199H583.062ZM603.215 94.7319C602.14 94.7319 601.187 94.5499 600.355 94.1859C599.523 93.8219 598.856 93.3193 598.353 92.6779C597.85 92.0193 597.538 91.2479 597.417 90.3639H600.069C600.156 90.7799 600.329 91.1613 600.589 91.5079C600.866 91.8546 601.222 92.1319 601.655 92.3399C602.088 92.5306 602.608 92.6259 603.215 92.6259C603.787 92.6259 604.255 92.5479 604.619 92.3919C604.983 92.2186 605.252 92.0019 605.425 91.7419C605.598 91.4646 605.685 91.1699 605.685 90.8579C605.685 90.3899 605.564 90.0346 605.321 89.7919C605.078 89.5493 604.723 89.3586 604.255 89.2199C603.804 89.0639 603.258 88.9166 602.617 88.7779C602.097 88.6566 601.56 88.5093 601.005 88.3359C600.45 88.1626 599.939 87.9459 599.471 87.6859C599.02 87.4086 598.656 87.0619 598.379 86.6459C598.102 86.2299 597.963 85.7186 597.963 85.1119C597.963 84.3666 598.162 83.6993 598.561 83.1099C598.96 82.5206 599.523 82.0613 600.251 81.7319C600.979 81.3853 601.846 81.2119 602.851 81.2119C604.272 81.2119 605.425 81.5586 606.309 82.2519C607.21 82.9279 607.73 83.9073 607.869 85.1899H605.347C605.278 84.6006 605.018 84.1413 604.567 83.8119C604.134 83.4826 603.553 83.3179 602.825 83.3179C602.08 83.3179 601.516 83.4653 601.135 83.7599C600.754 84.0546 600.563 84.4359 600.563 84.9039C600.563 85.2159 600.676 85.4846 600.901 85.7099C601.144 85.9353 601.482 86.1259 601.915 86.2819C602.366 86.4379 602.894 86.5853 603.501 86.7239C604.35 86.9319 605.13 87.1659 605.841 87.4259C606.569 87.6686 607.158 88.0413 607.609 88.5439C608.077 89.0293 608.311 89.7313 608.311 90.6499C608.328 91.4299 608.129 92.1319 607.713 92.7559C607.297 93.3799 606.708 93.8653 605.945 94.2119C605.182 94.5586 604.272 94.7319 603.215 94.7319ZM612.236 94.5499C611.751 94.5499 611.343 94.3939 611.014 94.0819C610.685 93.7526 610.52 93.3626 610.52 92.9119C610.52 92.4439 610.685 92.0539 611.014 91.7419C611.343 91.4126 611.751 91.2479 612.236 91.2479C612.739 91.2479 613.146 91.4126 613.458 91.7419C613.77 92.0539 613.926 92.4439 613.926 92.9119C613.926 93.3626 613.77 93.7526 613.458 94.0819C613.146 94.3939 612.739 94.5499 612.236 94.5499Z" fill="#111111"/>
</svg>
